<?xml version="1.0" encoding="utf-8"?>
<!-- Generator: Adobe Illustrator 16.0.0, SVG Export Plug-In . SVG Version: 6.00 Build 0)  -->
<!DOCTYPE svg PUBLIC "-//W3C//DTD SVG 1.1//EN" "http://www.w3.org/Graphics/SVG/1.1/DTD/svg11.dtd">
<svg version="1.1" id="Calque_1" xmlns="http://www.w3.org/2000/svg" xmlns:xlink="http://www.w3.org/1999/xlink" x="0px" y="0px"
	 width="140px" height="60px" viewBox="0 0 140 60" enable-background="new 0 0 140 60" xml:space="preserve">
<g>
	<defs>
		<rect id="SVGID_1_" x="8.5" y="16.867" width="123" height="26.266"/>
	</defs>
	<clipPath id="SVGID_2_">
		<use xlink:href="#SVGID_1_"  overflow="visible"/>
	</clipPath>
	<path clip-path="url(#SVGID_2_)" d="M8.5,16.867h12.496c-0.002,4.165,0,8.33-0.002,12.495H8.5V16.867z"/>
	<path clip-path="url(#SVGID_2_)" d="M22.271,16.867h12.495c0,4.165,0.001,8.33-0.001,12.495c-4.164-0.001-8.329,0-12.494,0
		C22.271,25.197,22.271,21.032,22.271,16.867"/>
	<path clip-path="url(#SVGID_2_)" d="M121.178,21.628c1.152-0.75,2.641-0.819,3.939-0.462c0.011,0.771,0.001,1.543,0.004,2.316
		c-0.616-0.272-1.342-0.449-1.99-0.183c-0.516,0.204-0.822,0.733-0.902,1.261c-0.097,0.67-0.033,1.35-0.051,2.023
		c1.318,0.003,2.637,0.001,3.954,0.002c0.01-0.855-0.011-1.712,0.011-2.567c0.896-0.255,1.783-0.541,2.674-0.81
		c0.008,1.127-0.01,2.255,0.01,3.383c0.891-0.013,1.783-0.003,2.674-0.006v2.194c-0.895-0.037-1.789-0.01-2.684-0.013
		c0.004,1.261,0,2.523,0.002,3.785c0.014,0.699-0.039,1.401,0.043,2.098c0.051,0.411,0.199,0.865,0.584,1.078
		c0.645,0.361,1.463,0.204,2.055-0.193v2.216c-0.771,0.335-1.635,0.438-2.471,0.378c-0.791-0.059-1.612-0.347-2.13-0.977
		c-0.597-0.712-0.751-1.677-0.763-2.579c-0.008-1.936,0-3.873-0.004-5.81c-1.318,0-2.637-0.001-3.955,0.001
		c-0.001,3.039,0,6.077,0,9.116h-2.703c0-3.038-0.003-6.075,0.002-9.113c-0.627-0.012-1.254,0.003-1.881-0.01
		c0.003-0.721,0.006-1.443-0.001-2.165c0.624-0.014,1.247-0.008,1.873-0.004c0.046-0.958-0.101-1.946,0.187-2.88
		C119.896,22.865,120.436,22.104,121.178,21.628"/>
	<path clip-path="url(#SVGID_2_)" d="M63.319,21.786c0.545-0.083,1.135,0.104,1.495,0.53c0.424,0.467,0.502,1.21,0.188,1.755
		c-0.346,0.615-1.121,0.901-1.799,0.753c-0.701-0.126-1.285-0.778-1.254-1.505C61.929,22.553,62.568,21.871,63.319,21.786"/>
	<path clip-path="url(#SVGID_2_)" d="M42.609,22.121h3.93c1.223,3.106,2.455,6.209,3.68,9.315c0.313,0.777,0.606,1.562,0.934,2.333
		c1.574-3.881,3.17-7.752,4.732-11.639c1.26-0.021,2.521-0.004,3.781-0.008c-0.003,5.253-0.002,10.505-0.001,15.758
		c-0.909-0.002-1.817,0.007-2.728-0.005c0.011-3.876,0-7.752,0.006-11.629c0.001-0.174-0.006-0.348-0.018-0.522
		c-0.053,0.081-0.101,0.165-0.142,0.252c-1.562,3.968-3.153,7.924-4.706,11.896c-0.646,0.023-1.295,0.001-1.942,0.012
		c-1.611-3.967-3.202-7.944-4.806-11.915c-0.041-0.083-0.086-0.163-0.135-0.24c-0.033,1.698-0.006,3.398-0.015,5.096
		c0.001,2.352-0.001,4.704,0.001,7.056c-0.857,0.002-1.716,0-2.572,0C42.608,32.627,42.607,27.374,42.609,22.121"/>
	<path clip-path="url(#SVGID_2_)" d="M70.756,26.574c1.305-0.372,2.711-0.356,4.015,0.012c0.269,0.075,0.529,0.179,0.771,0.321
		c-0.016,0.861,0,1.723-0.008,2.584c-0.871-0.665-1.977-1.087-3.085-0.948c-0.879,0.08-1.718,0.536-2.245,1.247
		c-0.676,0.881-0.832,2.051-0.715,3.129c0.087,0.843,0.436,1.686,1.092,2.245c0.682,0.605,1.637,0.82,2.528,0.752
		c0.881-0.101,1.712-0.474,2.425-0.995c0.008,0.815-0.004,1.631,0.006,2.447c-1.105,0.657-2.43,0.827-3.693,0.764
		c-1.295-0.068-2.584-0.558-3.521-1.467c-1.018-0.981-1.569-2.38-1.635-3.781c-0.066-1.457,0.23-2.976,1.068-4.193
		C68.461,27.654,69.56,26.919,70.756,26.574"/>
	<path clip-path="url(#SVGID_2_)" d="M100.275,26.402c1.25-0.22,2.558-0.058,3.74,0.39c0.002,0.829,0,1.656,0.001,2.484
		c-0.826-0.568-1.835-0.874-2.839-0.838c-0.504,0.02-1.06,0.234-1.29,0.714c-0.184,0.475-0.057,1.098,0.392,1.382
		c0.766,0.513,1.681,0.73,2.475,1.189c0.625,0.352,1.23,0.811,1.547,1.473c0.596,1.24,0.344,2.878-0.702,3.803
		c-0.999,0.934-2.438,1.191-3.761,1.142c-0.939-0.061-1.883-0.246-2.747-0.63c0.003-0.871-0.005-1.742,0.005-2.612
		c0.726,0.527,1.564,0.905,2.451,1.058c0.617,0.101,1.289,0.105,1.865-0.171c0.551-0.274,0.649-1.057,0.322-1.535
		c-0.307-0.37-0.756-0.573-1.18-0.772c-0.796-0.358-1.633-0.657-2.332-1.194c-0.492-0.384-0.863-0.924-1.01-1.533
		c-0.216-0.898-0.148-1.911,0.373-2.696C98.184,27.139,99.22,26.591,100.275,26.402"/>
	<path clip-path="url(#SVGID_2_)" d="M81.584,26.758c0.746-0.448,1.693-0.485,2.508-0.211c-0.004,0.901,0,1.802-0.002,2.704
		c-0.533-0.345-1.197-0.493-1.826-0.429c-0.768,0.087-1.375,0.676-1.69,1.352c-0.343,0.715-0.407,1.524-0.386,2.306
		c0,1.8,0.001,3.601,0,5.401h-2.664c-0.002-3.763,0.004-7.526-0.002-11.289c0.89-0.011,1.779-0.006,2.668-0.002
		c-0.004,0.646,0,1.292-0.002,1.939C80.477,27.825,80.906,27.142,81.584,26.758"/>
	<path clip-path="url(#SVGID_2_)" d="M62.193,26.589c0.896-0.004,1.793-0.013,2.689,0.004c-0.01,3.762,0,7.525-0.004,11.287h-2.684
		C62.193,34.117,62.196,30.353,62.193,26.589"/>
	<path clip-path="url(#SVGID_2_)" d="M89.065,26.38c1.296-0.165,2.665-0.092,3.868,0.457c1.045,0.471,1.891,1.342,2.36,2.386
		c0.501,1.11,0.622,2.358,0.538,3.562c-0.084,1.176-0.453,2.354-1.189,3.288c-0.752,0.992-1.887,1.665-3.102,1.915
		c-1.039,0.216-2.125,0.215-3.164-0.003c-1.242-0.266-2.393-0.987-3.121-2.036c-0.856-1.216-1.1-2.762-0.99-4.218
		c0.073-1.236,0.457-2.481,1.246-3.452C86.377,27.192,87.703,26.552,89.065,26.38 M89.871,28.525
		c-0.646,0.036-1.299,0.254-1.777,0.702c-0.66,0.598-0.963,1.489-1.044,2.356c-0.091,0.953-0.024,1.958,0.41,2.827
		c0.339,0.675,0.961,1.205,1.694,1.397c0.721,0.187,1.504,0.171,2.202-0.097c0.597-0.233,1.069-0.724,1.327-1.304
		c0.391-0.861,0.429-1.831,0.381-2.76c-0.066-0.85-0.309-1.74-0.934-2.354C91.548,28.701,90.684,28.472,89.871,28.525"/>
	<path clip-path="url(#SVGID_2_)" d="M110.604,26.376c1.35-0.167,2.781-0.077,4.012,0.544c1.073,0.537,1.905,1.506,2.321,2.627
		c0.325,0.858,0.438,1.784,0.421,2.697c0.002,1.364-0.367,2.765-1.223,3.847c-0.803,1.048-2.028,1.729-3.322,1.942
		c-1.267,0.205-2.604,0.152-3.807-0.322c-1.219-0.48-2.232-1.458-2.746-2.663c-0.535-1.229-0.591-2.611-0.424-3.924
		c0.175-1.312,0.77-2.596,1.782-3.469C108.448,26.929,109.517,26.516,110.604,26.376 M111.334,28.527
		c-0.748,0.042-1.489,0.364-1.973,0.946c-0.529,0.624-0.758,1.447-0.818,2.25c-0.064,0.828,0,1.686,0.32,2.46
		c0.266,0.65,0.771,1.215,1.425,1.491c0.604,0.26,1.286,0.307,1.933,0.21c0.604-0.088,1.188-0.377,1.58-0.85
		c0.389-0.471,0.595-1.063,0.698-1.658c0.13-0.798,0.132-1.619-0.022-2.413c-0.138-0.677-0.438-1.35-0.979-1.798
		C112.912,28.65,112.097,28.474,111.334,28.527"/>
	<path clip-path="url(#SVGID_2_)" d="M8.5,30.637c4.166,0.001,8.33,0,12.496,0.001c0,4.165,0,8.33,0,12.494H8.5V30.637z"/>
	<path clip-path="url(#SVGID_2_)" d="M22.271,30.639c4.165-0.001,8.33,0,12.495,0v12.495H22.271
		C22.271,38.968,22.271,34.803,22.271,30.639"/>
</g>
</svg>
