<?xml version="1.0" encoding="utf-8"?>
<!-- Generator: Adobe Illustrator 16.0.0, SVG Export Plug-In . SVG Version: 6.00 Build 0)  -->
<!DOCTYPE svg PUBLIC "-//W3C//DTD SVG 1.1//EN" "http://www.w3.org/Graphics/SVG/1.1/DTD/svg11.dtd">
<svg version="1.1" id="Calque_1" xmlns="http://www.w3.org/2000/svg" xmlns:xlink="http://www.w3.org/1999/xlink" x="0px" y="0px"
	 width="140px" height="60px" viewBox="0 0 140 60" enable-background="new 0 0 140 60" xml:space="preserve">
<g>
	<defs>
		<rect id="SVGID_1_" x="39.5" y="16.719" width="61" height="26.562"/>
	</defs>
	<clipPath id="SVGID_2_">
		<use xlink:href="#SVGID_1_"  overflow="visible"/>
	</clipPath>
	<path clip-path="url(#SVGID_2_)" d="M66.063,30c0,7.337-5.946,13.281-13.29,13.281C45.447,43.281,39.5,37.337,39.5,30
		c0-7.336,5.947-13.281,13.273-13.281C60.117,16.719,66.063,22.664,66.063,30 M55.953,29.494v1.031h6.879
		c-0.001,0.024-0.001,0.131-0.004,0.152c-0.357,5.239-4.725,9.399-10.055,9.399c-2.688,0-5.218-1.049-7.127-2.954
		c-1.898-1.9-2.947-4.432-2.947-7.125c0-2.696,1.049-5.229,2.947-7.129c1.909-1.897,4.439-2.947,7.127-2.947
		c0.115,0,0.403,0,0.531,0.004v-1.041c-0.104-0.001-0.279-0.004-0.416-0.006h-0.258C46.578,18.951,41.66,23.91,41.66,29.998
		c0,2.971,1.157,5.76,3.256,7.859c2.096,2.102,4.892,3.258,7.85,3.258c2.978,0,5.771-1.156,7.869-3.258
		c2.099-2.1,3.253-4.889,3.253-7.859v-0.506l-0.438,0.002H55.953z M52.244,24.174v11.639h3.701v-1.036h-2.641V24.174H52.244z
		 M48.536,24.167c-0.878,0-1.596,0.709-1.596,1.594c0,0.879,0.718,1.587,1.596,1.587c0.876,0,1.593-0.708,1.593-1.587
		C50.129,24.876,49.412,24.167,48.536,24.167"/>
	<polygon clip-path="url(#SVGID_2_)" points="72.697,22.101 77.391,22.101 77.391,34.014 84.359,34.014 84.359,37.992 
		72.697,37.992 	"/>
	<path clip-path="url(#SVGID_2_)" d="M96.506,36.406c-0.828,1.27-2.359,1.979-4.278,1.979c-4.13,0-6.817-3.285-6.817-8.361
		c0-5.148,3.029-8.32,8.029-8.32c1.998,0,3.705,0.531,5.02,1.543c1.332,1.052,1.828,2.084,2.04,4.181h-4.906
		c-0.135-1.223-1.05-2.012-2.259-2.012c-1.893,0-3.006,1.757-3.006,4.673c0,2.957,1.156,4.732,3.09,4.732
		c1.527,0,2.409-0.851,2.771-2.745h-3.026v-3.339h7.336v9.256h-3.993V36.406z"/>
</g>
</svg>
