<?xml version="1.0" encoding="utf-8"?>
<!-- Generator: Adobe Illustrator 16.0.0, SVG Export Plug-In . SVG Version: 6.00 Build 0)  -->
<!DOCTYPE svg PUBLIC "-//W3C//DTD SVG 1.1//EN" "http://www.w3.org/Graphics/SVG/1.1/DTD/svg11.dtd">
<svg version="1.1" id="Calque_1" xmlns="http://www.w3.org/2000/svg" xmlns:xlink="http://www.w3.org/1999/xlink" x="0px" y="0px"
	 width="140px" height="60px" viewBox="0 0 140 60" enable-background="new 0 0 140 60" xml:space="preserve">
<g>
	<defs>
		<rect id="SVGID_1_" x="57" y="14.053" width="26" height="31.893"/>
	</defs>
	<clipPath id="SVGID_2_">
		<use xlink:href="#SVGID_1_"  overflow="visible"/>
	</clipPath>
	<path clip-path="url(#SVGID_2_)" fill-rule="evenodd" clip-rule="evenodd" d="M71.346,16.829c2.096-2.762,5.009-2.775,5.009-2.775
		s0.433,2.597-1.648,5.098c-2.223,2.671-4.749,2.234-4.749,2.234S69.482,19.285,71.346,16.829"/>
	<path clip-path="url(#SVGID_2_)" fill-rule="evenodd" clip-rule="evenodd" d="M70.223,23.205c1.078,0,3.079-1.482,5.684-1.482
		c4.482,0,6.246,3.189,6.246,3.189s-3.449,1.764-3.449,6.042c0,4.827,4.297,6.491,4.297,6.491s-3.003,8.454-7.061,8.454
		c-1.863,0-3.312-1.256-5.275-1.256c-2,0-3.986,1.303-5.279,1.303c-3.705,0-8.385-8.02-8.385-14.465c0-6.342,3.961-9.67,7.678-9.67
		C67.093,21.811,68.967,23.205,70.223,23.205"/>
</g>
</svg>
