<svg xmlns="http://www.w3.org/2000/svg" width="20" height="20" viewBox="0 0 20 20">
    <path fill-rule="evenodd" d="M10.143 1c5.041 0 9.143 4.1 9.143 9.143 0 5.041-4.102 9.143-9.143 9.143a9.141 9.141 0 0 1-4.306-1.08l-3.827 1.05a.8.8 0 0 1-.938-1.1l1.389-3.058A9.079 9.079 0 0 1 1 10.143C1 5.1 5.102 1 10.143 1zm0 1.597c-4.16 0-7.546 3.385-7.546 7.546 0 1.593.492 3.118 1.424 4.408a.798.798 0 0 1 .08.796l-.871 1.92 2.5-.688a.79.79 0 0 1 .614.082 7.536 7.536 0 0 0 3.799 1.027c4.161 0 7.546-3.385 7.546-7.545 0-4.161-3.385-7.546-7.546-7.546zm-2.89 3.37c.145 0 .286.032.414.104.392.222.595.778.776 1.17l.062.137c.123.282.234.62.183.915-.058.343-.33.633-.547.888-.147.171-.168.318-.046.504.716 1.194 1.712 2.062 3.01 2.58a.48.48 0 0 0 .178.038.314.314 0 0 0 .252-.131c.224-.277.446-.82.79-.96a.863.863 0 0 1 .332-.064c.352 0 .711.19 1.001.364.357.213.952.475 1.05.915.045.213.004.438-.08.64-.28.682-.977 1.118-1.684 1.254a2.237 2.237 0 0 1-.41.038c-.5 0-.953-.169-1.448-.332a7.715 7.715 0 0 1-1.597-.76 9.1 9.1 0 0 1-2.56-2.376 10.153 10.153 0 0 1-.59-.899c-.24-.409-.454-.84-.565-1.303a2.61 2.61 0 0 1-.073-.588c-.01-.7.258-1.407.812-1.858a1.21 1.21 0 0 1 .74-.276z"/>
</svg>
