<svg xmlns="http://www.w3.org/2000/svg" width="20" height="20" viewBox="0 0 20 20">
    <path fill-rule="evenodd" d="M19.12 3.89a7.61 7.61 0 0 1-2.26.64 4 4 0 0 0 1.73-2.23 8 8 0 0 1-2.5 1A3.88 3.88 0 0 0 13.21 2a4 4 0 0 0-3.83 5 11.1 11.1 0 0 1-8.12-4.22 4.1 4.1 0 0 0-.54 2 4.06 4.06 0 0 0 1.8 3.35 3.87 3.87 0 0 1-1.79-.5v.05a4 4 0 0 0 3.16 4 4 4 0 0 1-1 .14 4.53 4.53 0 0 1-.74-.07 4 4 0 0 0 3.68 2.8 7.73 7.73 0 0 1-4.89 1.73H0a11 11 0 0 0 6 1.81c7.24 0 11.21-6.15 11.21-11.49v-.53a8 8 0 0 0 1.91-2.18z"/>
</svg>
