<svg xmlns="http://www.w3.org/2000/svg" width="45" height="45" viewBox="0 0 45 45">
    <path fill="#000" fill-rule="evenodd" d="M36.563 21.78H34.03l-5.037-8.507a1.78 1.78 0 0 0-1.544-.898H7.875c0 1.417 1.133 2.565 2.531 2.565h9.281a.85.85 0 0 1 .844.855.85.85 0 0 1-.843.855H8.717c0 1.417 1.134 2.565 2.532 2.565h8.438a.85.85 0 0 1 .843.855.85.85 0 0 1-.843.855H9.563c0 1.417 1.133 2.565 2.53 2.565h7.595a.85.85 0 0 1 .843.855.85.85 0 0 1-.843.855h-6.75v4.788c.045 2.086 1.728 3.762 3.796 3.762 2.07 0 3.751-1.676 3.796-3.762h6.752c.045 2.086 1.727 3.762 3.796 3.762s3.751-1.676 3.796-3.762h3.376V23.49c0-.944-.755-1.71-1.688-1.71"/>
</svg>
