<svg xmlns="http://www.w3.org/2000/svg" width="31" height="30" viewBox="0 0 31 30">
    <path fill="#000000" fill-rule="evenodd" d="M8.808 10.75c-.65 0-1.176.542-1.176 1.212 0 .669.526 1.211 1.176 1.211.65 0 1.176-.542 1.176-1.211 0-.67-.527-1.212-1.176-1.212zm15.29.388H12.336c-.433 0-.784.377-.784.824 0 .446.351.791.784.791h11.762a.782.782 0 0 0 .784-.791c0-.447-.351-.824-.784-.824zm-15.29 3.65c-.65 0-1.176.543-1.176 1.212 0 .67.526 1.212 1.176 1.212.65 0 1.176-.543 1.176-1.212 0-.67-.527-1.212-1.176-1.212zm15.29.388H12.336c-.433 0-.784.378-.784.824 0 .446.351.792.784.792h11.762a.782.782 0 0 0 .784-.792c0-.446-.351-.824-.784-.824zm-15.29 3.65c-.65 0-1.176.543-1.176 1.212 0 .67.526 1.212 1.176 1.212.65 0 1.176-.542 1.176-1.212 0-.669-.527-1.211-1.176-1.211zm15.29.389H12.336c-.433 0-.784.377-.784.823 0 .447.351.792.784.792h11.762a.782.782 0 0 0 .784-.792c0-.446-.351-.823-.784-.823z"/>
</svg>
