<svg width="30" height="30" viewBox="0 0 30 30" xmlns="http://www.w3.org/2000/svg">
    <g fill="none" fill-rule="evenodd">
        <path d="M5.778 29C3.144 29 1 26.813 1 24.125c0-.854.22-1.695.638-2.433l9.72-17.248C12.21 2.937 13.798 2 15.5 2c1.704 0 3.29.937 4.14 2.444l9.724 17.25A4.96 4.96 0 0 1 30 24.125C30 26.813 27.857 29 25.222 29H5.778z" fill="#FFF"/>
        <path d="M27.428 22.677l-9.645-17.25C17.303 4.573 16.416 4 15.401 4c-1.015 0-1.902.573-2.38 1.427L3.398 22.634l-.001.002-.022.04c-.239.426-.376.92-.376 1.449C3 25.713 4.234 27 5.756 27h19.292c1.522 0 2.756-1.287 2.756-2.875 0-.528-.137-1.023-.376-1.448" fill="#CD3C14"/>
        <path d="M19.665 22.341a1.108 1.108 0 0 1-.802.347c-.29 0-.58-.116-.802-.347l-2.66-2.774-2.659 2.774a1.105 1.105 0 0 1-.801.347c-.29 0-.58-.116-.802-.347a1.22 1.22 0 0 1 0-1.673l2.66-2.773-2.565-2.677a1.219 1.219 0 0 1 0-1.672 1.1 1.1 0 0 1 1.603 0l2.565 2.676 2.565-2.676a1.102 1.102 0 0 1 1.604 0c.442.462.442 1.21-.001 1.672l-2.565 2.677 2.66 2.773a1.22 1.22 0 0 1 0 1.673" fill="#FFF"/>
    </g>
</svg>
