<svg xmlns="http://www.w3.org/2000/svg" width="45" height="45" viewBox="0 0 45 45">
    <path fill="#000" fill-rule="evenodd" d="M30.749 29.68h-5.347a2.482 2.482 0 0 0-2.42-1.653 2.488 2.488 0 0 0-2.398 2.346 2.482 2.482 0 0 0 4.818.962h4.424c-.151.229-.309.45-.474.666-.848 1.11-1.825 1.974-2.904 2.571-1.078.596-2.217.899-3.386.899-1.168 0-2.307-.303-3.385-.899-1.079-.597-2.056-1.462-2.904-2.57-.873-1.143-1.561-2.48-2.045-3.975a16.106 16.106 0 0 1-.765-4.965c0-1.725.258-3.395.765-4.964.134-.415.284-.817.45-1.206.2-.472.694-.75 1.202-.677 1.282.183 3.584.886 6.683 3.34 3.754 2.973 7.744 2.154 8.972 1.446.084.676.127 1.364.127 2.061 0 1.726-.258 3.396-.765 4.965a14.376 14.376 0 0 1-.648 1.653m3.067-11.58h-.689C31.593 12.781 27.666 9 23.062 9c-4.603 0-8.53 3.782-10.064 9.1h-.69A3.309 3.309 0 0 0 9 21.407v3.309a3.309 3.309 0 0 0 3.309 3.309h.689c1.534 5.317 5.461 9.099 10.065 9.099 4.603 0 8.53-3.782 10.064-9.1h.69a3.309 3.309 0 0 0 3.308-3.308v-3.309a3.309 3.309 0 0 0-3.309-3.309"/>
</svg>
