<svg width="30" height="30" viewBox="0 0 30 30" xmlns="http://www.w3.org/2000/svg">
    <path d="M22.286 24.03H18v4.264h-.857V24.03h-4.286v4.265H12V24.03H7.714v3.412c0 .471.384.853.857.853H21.43a.855.855 0 0 0 .857-.853V24.03zM18 23.175h4.286v-4.264H18v4.264zm4.286-8.529a.855.855 0 0 0-.857-.853H18v4.265h4.286v-3.412zm-5.143-.853h-4.286v5.118H7.714v4.264h9.429v-9.382zm-9.429.853v3.412H12v-4.265H8.571a.855.855 0 0 0-.857.853zM22.286 30H7.714A1.71 1.71 0 0 1 6 28.294V2.706A1.71 1.71 0 0 1 7.714 1H18l6 5.97v21.324A1.71 1.71 0 0 1 22.286 30z" fill-rule="evenodd"/>
</svg>
