<svg xmlns="http://www.w3.org/2000/svg" width="40" height="40" viewBox="0 0 40 40">
    <path fill-rule="evenodd" d="M28.733 18.323l-8.748 9.339-8.748-9.34-.004-.004c-1.694-1.813-1.543-4.606.338-6.238 1.811-1.573 4.584-1.504 6.308.158a.7.7 0 0 0 .014.013l1.338 1.226.754.7.755-.7 1.338-1.226.014-.013a4.642 4.642 0 0 1 3.24-1.293c2.532 0 4.584 1.977 4.584 4.416 0 1.093-.42 2.146-1.178 2.957l-.005.005zm2-8.167c-2.965-2.858-7.76-2.874-10.748-.051-2.987-2.823-7.783-2.807-10.748.051-2.934 2.828-2.982 7.385-.143 10.27L19.985 32l10.892-11.575c2.839-2.884 2.79-7.44-.143-10.269z"/>
</svg>
