<svg xmlns="http://www.w3.org/2000/svg" width="30" height="30" viewBox="0 0 30 30">
    <path fill="#000" fill-rule="evenodd" d="M15 5.25c-5.385 0-9.75 4.365-9.75 9.75s4.365 9.75 9.75 9.75 9.75-4.365 9.75-9.75S20.385 5.25 15 5.25zm-.913 3.714c.233-.25.54-.377.913-.39.373.013.68.14.913.39.246.263.369.63.37 1.1 0 .344-.485 6.693-.604 6.95-.118.258-.331.387-.637.387-.015 0-.027-.005-.042-.005-.015 0-.027.005-.043.005-.305 0-.518-.13-.636-.387-.12-.257-.603-6.606-.603-6.95 0-.47.123-.837.369-1.1zM15.9 21.086a1.302 1.302 0 0 1-.892.34 1.336 1.336 0 0 1-.904-.336c-.258-.223-.386-.536-.386-.938 0-.35.123-.65.369-.896s.547-.37.904-.37.661.124.913.37c.246.233.384.558.378.896 0 .397-.127.708-.382.934z"/>
</svg>
