<svg width="30" height="30" viewBox="0 0 30 30" xmlns="http://www.w3.org/2000/svg">
    <path d="M17.25 18.91L15 23.454v2.651a1.885 1.885 0 0 1-2.01 1.889c-.53-.039-2.49-.753-2.49-4.162 0-.661.75-4.924.75-4.924h-6A2.261 2.261 0 0 1 3 16.636c0-.975.608-1.806 1.463-2.129a2.277 2.277 0 0 1-.713-1.659c0-.975.608-1.806 1.463-2.129A2.277 2.277 0 0 1 4.5 9.061c0-1.198.917-2.178 2.08-2.266A2.277 2.277 0 0 1 6 5.273 2.261 2.261 0 0 1 8.25 3h6.042c.466 0 .925.11 1.341.32l3.55 1.793c.209.105.438.16.671.16H21V16.65a4.896 4.896 0 0 0-3.75 2.258M24.375 6.03a1.13 1.13 0 0 0-1.125 1.137 1.13 1.13 0 0 0 1.125 1.136A1.13 1.13 0 0 0 25.5 7.167a1.13 1.13 0 0 0-1.125-1.137M25.5 17.394h-2.25c-.828 0-1.5-.678-1.5-1.515V6.03c0-.836.672-1.515 1.5-1.515h2.25c.828 0 1.5.679 1.5 1.515v9.849c0 .837-.672 1.515-1.5 1.515" fill-rule="evenodd"/>
</svg>
