<svg width="30" height="30" viewBox="0 0 30 30" xmlns="http://www.w3.org/2000/svg">
    <path d="M19.129 8.242c0-.66.317-1.245.806-1.613v1.613a1.21 1.21 0 0 0 2.42 0V6.645c.49.368.806.938.806 1.597a2.016 2.016 0 1 1-4.032 0zm-11.29 0c0-.66.317-1.245.806-1.613v1.613a1.21 1.21 0 0 0 2.42 0V6.629a2.016 2.016 0 1 1-3.226 1.613zm18.548 18.145H5.823a1.21 1.21 0 0 1-1.21-1.21v-12.5h20.564c.669 0 1.21.542 1.21 1.21v12.5zM25.581 5.42h-3.226V4.194c0-.669-.542-1.194-1.21-1.194a1.21 1.21 0 0 0-1.21 1.21v1.21h-8.87V4.21a1.21 1.21 0 0 0-2.42 0v1.21H3v20.16A2.42 2.42 0 0 0 5.42 28H28V7.839a2.42 2.42 0 0 0-2.42-2.42z" fill-rule="evenodd"/>
</svg>
