<svg xmlns="http://www.w3.org/2000/svg" width="40" height="40" viewBox="0 0 40 40">
    <path fill="#FFF" fill-rule="evenodd" d="M19.665 24.588l-.205-1.629-1.46-.407 4.06-1.787-2.395 3.823zm5.72-10.5v1.324a.767.767 0 0 1-.77.764.767.767 0 0 1-.769-.764v-1.325a1.527 1.527 0 0 0 .77 2.854 1.527 1.527 0 1 0 .77-2.854h-.001zm-2.67-4.434A3.83 3.83 0 0 0 20 8.529a3.83 3.83 0 0 0-2.715 1.125 3.784 3.784 0 0 0-1.131 2.699h7.692a3.784 3.784 0 0 0-1.131-2.7zm-7.33 6.522a.767.767 0 0 1-.77-.764v-1.325a1.527 1.527 0 0 0 .77 2.854 1.527 1.527 0 1 0 .77-2.854l-.001 1.325a.767.767 0 0 1-.77.764zm1.436 8.155l3.177 5.61H20l3.167-5.61c.385-.713.68-1.243.68-2.037 0-2.1-1.741-3.823-3.847-3.823a3.83 3.83 0 0 0-3.846 3.823c0 .795.282 1.324.667 2.037zM27.692 33H12.308A2.3 2.3 0 0 1 10 30.706V12.353h4.615C14.615 9.409 17.038 7 20 7c2.962 0 5.385 2.409 5.385 5.353H30v18.353A2.3 2.3 0 0 1 27.692 33z"/>
</svg>
