<svg xmlns="http://www.w3.org/2000/svg" width="75" height="75" viewBox="0 0 75 75">
    <path fill-rule="evenodd" d="M25.321 30.33c1.472-.006 2.723 0 4.195 0h15.382c.594 0 1.045.237 1.261.75.222.527.193 1.023-.136 1.487-.262.369-.625.604-1.07.632-.046.002-.12 0-.167 0H25.321a1.366 1.366 0 0 1-.993-.416 1.438 1.438 0 0 1-.405-1.018c0-.85.548-1.43 1.398-1.434zm19.577 8.604h-9.789c-3.242 0-6.545.002-9.788 0-.857 0-1.398-.592-1.398-1.434 0-.73.685-1.387 1.398-1.434.056-.003.056 0 .112 0h19.465c.771.002 1.396.643 1.398 1.434 0 .838-.574 1.434-1.398 1.434zm-20.699 3.44c.262-.37.678-.547 1.122-.573a.32.32 0 0 1 .056 0h19.409c.262-.006.522.05.759.165l-2.66 2.703h-7.776c-3.242 0-6.545.002-9.788 0-.581 0-.983-.252-1.248-.785-.261-.523-.21-1.038.126-1.51zm6.63 7.98c-.913.003-1.825.001-2.738.001-.894 0-1.788.002-2.682 0-.858-.002-1.49-.612-1.494-1.436-.003-.826.628-1.448 1.48-1.45 1.816-.002 3.632-.002 5.448 0 .852.002 1.482.624 1.48 1.45-.004.824-.636 1.434-1.494 1.436zm13.744-25.758h8.715L42.1 13.125v8.603c0 1.584 1.1 2.868 2.472 2.868zm15.371 13.82a2.17 2.17 0 0 0-.617-1.453l-2.406-2.469-.988-1.013-.989 1.013-1.656 1.687v-8.718h-8.404a5.514 5.514 0 0 1-3.95-1.681 5.8 5.8 0 0 1-1.63-4.054v-8.603H16.93v45.882c0 1.584 1.252 2.868 2.796 2.868h33.562V46.16l6.018-6.17.062-.064c.383-.403.591-.948.576-1.51zm-4.717 3.719a.205.205 0 0 1-.026.026L40.777 56.96l-6.132 3.249 3.249-6.206L52.771 38.76l2.429 2.425a.722.722 0 0 1 .207.473.64.64 0 0 1-.18.478zm3.139-3.208a.284.284 0 0 1-.025.025l-1.7 1.743-2.883-2.958 2.174-2.229 2.406 2.469c.268.274.28.692.027.95z"/>
</svg>
