<svg xmlns="http://www.w3.org/2000/svg" width="30" height="30" viewBox="0 0 30 30">
    <path fill="#527EDB" fill-rule="evenodd" d="M18.606 13.183a3.692 3.692 0 0 1-.665.896c-.257.251-.718.675-1.383 1.27a5.648 5.648 0 0 0-.442.441 1.8 1.8 0 0 0-.247.349c-.054.105-.096.21-.126.316-.03.105-.074.29-.134.556-.102.562-.424.843-.965.843a.987.987 0 0 1-.71-.276c-.191-.184-.287-.457-.287-.819 0-.454.07-.847.21-1.18.141-.332.328-.624.56-.875.233-.252.546-.55.941-.897.346-.302.596-.53.75-.685.154-.154.284-.326.39-.515.105-.189.157-.394.157-.616 0-.433-.16-.797-.482-1.095-.322-.297-.737-.446-1.245-.446-.595 0-1.033.15-1.314.45-.28.3-.519.742-.713 1.326-.184.611-.533.916-1.046.916-.303 0-.559-.106-.767-.32-.208-.213-.312-.444-.312-.693 0-.514.165-1.034.495-1.561.33-.527.81-.964 1.443-1.31.633-.346 1.37-.519 2.214-.519.784 0 1.476.145 2.076.434.6.29 1.064.683 1.39 1.18.328.497.491 1.038.491 1.622 0 .46-.093.862-.28 1.208m-3.028 7.51a1.232 1.232 0 0 1-.844.324c-.33 0-.617-.107-.863-.32-.246-.214-.37-.513-.37-.897 0-.34.12-.627.358-.86.238-.232.53-.348.875-.348.341 0 .627.116.86.349.232.232.349.518.349.86 0 .378-.122.675-.365.891m-.701-15.485a9.67 9.67 0 0 0-9.67 9.669 9.67 9.67 0 0 0 9.67 9.67c5.34 0 9.67-4.33 9.67-9.67s-4.33-9.67-9.67-9.67"/>
</svg>
