<svg xmlns="http://www.w3.org/2000/svg" width="30" height="31" viewBox="0 0 30 31">
    <path fill-rule="evenodd" d="M14.634 13.847zm1.303-3.441a1.125 1.125 0 00-2.25 0v4.5a1.113 1.113 0 00.041.3l.008.027a.839.839 0 00.008.025l.012.035a1.244 1.244 0 00.094.196l.045.068c.016.022.032.044.05.064l.017.021a1.136 1.136 0 00.114.114l.016.014.005.004 2.695 2.246a1.125 1.125 0 001.44-1.728l-2.294-1.913m-2.219.296zm.915-.828zm.434-.034zm-1.349.862zm.131.814zm.145.168zm.067.085zm.75-10.399A9.546 9.546 0 007.26 9.04L5.25 7.03v4.376h.007A1.123 1.123 0 006.5 12.649v.007h4.375l-2.008-2.008A7.323 7.323 0 117.5 14.906v-.563a.562.562 0 00-.563-.562H5.813a.563.563 0 00-.562.562v.563a9.563 9.563 0 109.563-9.563z"/>
</svg>
