<svg xmlns="http://www.w3.org/2000/svg" width="28" height="28" viewBox="0 0 28 28">
    <path fill="#FFF" fill-rule="evenodd" d="M17.487 12.196a4.83 4.83 0 0 1-6.623 0A4.724 4.724 0 0 0 8.4 16.24H8.4v4.41c0 1.16.94 2.1 2.1 2.1h9.45v-6.405c0-1.73-.944-3.322-2.463-4.15zm.468-3.516a3.78 3.78 0 1 1-7.56 0 3.78 3.78 0 0 1 7.56 0zm-1.742 13.021v-.304l.062-.002c.184-.006.32-.058.406-.155.03-.035.083-.155.083-.557v-2.684c0-.383-.054-.527-.099-.58-.063-.076-.195-.12-.391-.132l-.062-.004v-.309h2.079v3.709c0 .383.1.527.144.58.063.076.175.12.375.132l.069.004v.302h-2.666zm1.204-5.325a.896.896 0 1 1 0-1.792.896.896 0 0 1 0 1.792z"/>
</svg>
