<svg xmlns="http://www.w3.org/2000/svg" width="40" height="40" viewBox="0 0 40 40">
    <path fill-rule="evenodd" d="M21.57 9.262C23.26 7.01 25.608 7 25.608 7s.35 2.116-1.33 4.154c-1.792 2.177-3.83 1.82-3.83 1.82s-.382-1.711 1.12-3.712zm-.906 5.195c.87 0 2.483-1.208 4.583-1.208 3.616 0 5.038 2.6 5.038 2.6s-2.782 1.437-2.782 4.923c0 3.934 3.465 5.29 3.465 5.29s-2.422 6.888-5.694 6.888c-1.502 0-2.67-1.023-4.254-1.023-1.614 0-3.215 1.061-4.258 1.061-2.988 0-6.762-6.534-6.762-11.787 0-5.168 3.195-7.88 6.192-7.88 1.948 0 3.46 1.136 4.472 1.136z"/>
</svg>
