<svg xmlns="http://www.w3.org/2000/svg" width="40" height="40" viewBox="0 0 40 40">
    <path fill="#527EDB" fill-rule="evenodd" d="M20.5 8C27.403 8 33 13.597 33 20.5S27.403 33 20.5 33 8 27.403 8 20.5 13.597 8 20.5 8zm.402 16.904c-.866 0-1.444.722-1.444 1.444s.722 1.444 1.444 1.444 1.444-.722 1.444-1.444-.577-1.444-1.444-1.444zm0-11.696c-.722 0-1.444.722-1.444 1.589l.434 7.941.005.11c.053.486.466.612 1.005.612.54 0 .953-.126 1.005-.612l.006-.11.433-7.941v-.145l-.007-.15c-.078-.782-.757-1.294-1.437-1.294z"/>
</svg>
