<svg xmlns="http://www.w3.org/2000/svg" width="30" height="30" viewBox="0 0 30 30">
    <path fill="#000" fill-rule="evenodd" d="M23.079 14.133a8.14 8.14 0 0 0-7.212-7.212V5.25h-1.734v1.671a8.14 8.14 0 0 0-7.212 7.212H5.25v1.734h1.671a8.14 8.14 0 0 0 7.212 7.212v1.671h1.734v-1.671a8.14 8.14 0 0 0 7.212-7.212h1.671v-1.734h-1.671zm-1.637 1.734a6.514 6.514 0 0 1-5.575 5.575v-1.567h-1.734v1.567a6.514 6.514 0 0 1-5.575-5.575h1.567v-1.734H8.558a6.514 6.514 0 0 1 5.575-5.575v1.567h1.734V8.558a6.514 6.514 0 0 1 5.575 5.575h-1.567v1.734h1.567z"/>
</svg>
