<svg xmlns="http://www.w3.org/2000/svg" width="100" height="100" viewBox="0 0 100 100">
    <path fill="#FFF" fill-rule="evenodd" d="M74.188 34.262c-.306 1.597-.991 2.887-1.753 4.32l-.047.09-.025.046-.027.044-6.317 10.522a4.025 4.025 0 0 1-.944 4.981 3.885 3.885 0 0 1-5 .007 4.025 4.025 0 0 1-.956-4.98l-6.342-10.527-.027-.046-.026-.048c-.831-1.565-1.624-3.058-1.864-5.012H22.5v21.92l2.75 2.79-2.75 2.79v10.363c0 3.301 2.638 5.978 5.893 5.978H77.5V39.638c0-2.287-1.286-4.374-3.312-5.376zM28.084 55.638l-2.778-2.818 2.778-2.818 2.778 2.818-2.778 2.818zm2.608-8.34l2.778-2.819 2.778 2.818-2.778 2.818-2.778-2.818zm5.556 5.636l2.778-2.819 2.778 2.818-2.778 2.819-2.778-2.818zm5.556 5.636l2.778-2.818 2.778 2.818-2.778 2.818-2.778-2.818zm8.108 8.17l-2.778-2.819 2.778-2.818 2.778 2.818-2.778 2.818zm5.556-5.637l-2.778-2.818 2.778-2.819 2.778 2.819-2.778 2.818zM62.571 22.5a9.722 9.722 0 0 0-6.942 2.899 10.007 10.007 0 0 0-2.879 7.034c0 2.064.72 3.44 1.703 5.293l8.114 13.47h.004l8.088-13.47c.984-1.852 1.734-3.23 1.734-5.293 0-5.457-4.444-9.933-9.822-9.933zm0 13.55c-1.952 0-3.535-1.605-3.535-3.586 0-1.981 1.583-3.587 3.535-3.587 1.953 0 3.536 1.606 3.536 3.587 0 1.98-1.583 3.587-3.536 3.587z"/>
</svg>
