<svg xmlns="http://www.w3.org/2000/svg" width="22" height="22" viewBox="0 0 22 22">
    <path fill="#000" fill-rule="evenodd" d="M7.86 16.1V9.11c0-.227.185-.411.414-.411.228 0 .413.184.413.41v6.993a.412.412 0 0 1-.413.41.412.412 0 0 1-.414-.41v-.003zm2.482 0V9.11c0-.227.185-.411.414-.411.228 0 .413.184.413.41v6.993a.412.412 0 0 1-.413.41.412.412 0 0 1-.414-.41v-.003zm2.482 0V9.11c0-.227.185-.411.414-.411.228 0 .413.184.413.41v6.993a.412.412 0 0 1-.413.41.412.412 0 0 1-.414-.41v-.003zm-6.619 1.647h9.101V7.465h-9.1v10.282zm5.792-12.75H9.515v-.41H11.997v.41zm2.895 0h-2.068v-.41a.825.825 0 0 0-.827-.823H9.515a.825.825 0 0 0-.828.823v.41H6.62c-.686 0-1.241.553-1.241 1.234v.823h10.755v-.823c0-.681-.555-1.234-1.24-1.234z"/>
</svg>
