<svg xmlns="http://www.w3.org/2000/svg" width="50" height="50" viewBox="0 0 50 50">
    <path fill-rule="evenodd" d="M32.875 22.4a1.12 1.12 0 0 0-1.125 1.114v1.115c0 3.692-3.022 6.685-6.75 6.685s-6.75-2.993-6.75-6.685v-1.115a1.12 1.12 0 0 0-1.125-1.114A1.12 1.12 0 0 0 16 23.514v1.115c-.002 4.499 3.382 8.294 7.89 8.847v2.295h-2.64c-.828 0-1.5.666-1.5 1.486V38h10.5v-.743c0-.82-.672-1.486-1.5-1.486h-2.64v-2.295c4.508-.553 7.893-4.348 7.89-8.847v-1.115a1.12 1.12 0 0 0-1.125-1.114zM25 12c-2.9 0-5.25 2.328-5.25 5.2v7.429c0 2.871 2.35 5.2 5.25 5.2s5.25-2.329 5.25-5.2V17.2c0-2.872-2.35-5.2-5.25-5.2zm-3.75 9.657V17.2c0-2.051 1.679-3.714 3.75-3.714 2.071 0 3.75 1.663 3.75 3.714v4.457h-7.5z"/>
</svg>
