<svg width="30" height="30" viewBox="0 0 30 30" xmlns="http://www.w3.org/2000/svg">
    <path d="M27.219 26.437c0 .863-.7 1.563-1.563 1.563h-9.375V16.281H27.22v10.156zM14.719 28H5.344c-.863 0-1.563-.7-1.563-1.563V16.281H14.72V28zm6.244-20.518a1.564 1.564 0 0 0-.778-2.92c-.273 0-.533.07-.773.207-.26.149-.433.317-.562.547l-.008.014-.008.014-1.382 2.35h2.63c.305 0 .659-.086.88-.212zm-8.797-2.138l-.008-.014-.008-.014a1.398 1.398 0 0 0-.562-.547c-.24-.137-.5-.207-.773-.207a1.564 1.564 0 0 0-.778 2.92c.222.126.576.212.88.212h2.633l-1.383-2.35zm4.115 9.375V9.256H14.72v5.463H3v-3.906c0-.863.7-1.563 1.563-1.563h6.156c-.487-.03-1.027-.166-1.457-.412a3.125 3.125 0 0 1 3.102-5.425c.509.291.88.662 1.148 1.138L15.5 7.928l1.988-3.377c.267-.476.64-.847 1.148-1.138a3.123 3.123 0 0 1 4.264 1.16 3.125 3.125 0 0 1-1.162 4.265c-.43.246-.97.382-1.457.412h6.157c.862 0 1.562.7 1.562 1.563v3.906H16.281z" fill-rule="evenodd"/>
</svg>
