<svg xmlns="http://www.w3.org/2000/svg" width="68" height="68" viewBox="0 0 68 68">
    <path fill-rule="evenodd" d="M45.053 11.9H24.648a2.547 2.547 0 00-2.548 2.55V52.7c0 1.408 1.14 2.55 2.547 2.55h20.405A2.547 2.547 0 0047.6 52.7V14.45c0-1.408-1.14-2.55-2.547-2.55zm-12.115 1.275h3.825a.638.638 0 010 1.275h-3.825a.638.638 0 010-1.275zm1.912 40.8a1.275 1.275 0 110-2.55 1.275 1.275 0 010 2.55zm10.2-3.825h-20.4V15.725h20.4V50.15zm-5.1-20.4h-1.275V27.2a3.825 3.825 0 10-7.65 0v2.55h-2.55v10.2c0 .704.57 1.275 1.275 1.275h11.475v-10.2c0-.704-.57-1.275-1.275-1.275zM32.3 27.2a2.55 2.55 0 015.1 0v2.55h-5.1V27.2zm3.317 8.3l.286 2.907h-2.124l.286-2.907a1.593 1.593 0 111.552 0z"/>
</svg>
