<?xml version="1.0" encoding="UTF-8"?>
<svg width="26px" height="26px" viewBox="0 0 26 26" version="1.1" xmlns="http://www.w3.org/2000/svg" xmlns:xlink="http://www.w3.org/1999/xlink">
    <!-- Generator: Sketch 63.1 (92452) - https://sketch.com -->
    <title>icons/functional_UI/S-Z/ic_Tick_confirmation</title>
    <desc>Created with Sketch.</desc>
    <g id="Page-1" stroke="none" stroke-width="1" fill="none" fill-rule="evenodd">
        <g id="iPhone-8" transform="translate(-52.000000, -111.000000)" fill="#32C832">
            <g id="icons/functional_UI/S-Z/ic_Tick_confirmation" transform="translate(50.000000, 109.000000)">
                <path d="M15,2.24999995 C7.95836997,2.24999995 2.24999995,7.95836997 2.24999995,15 C2.24999995,22.04163 7.95836997,27.7499999 15,27.7499999 C22.04163,27.7499999 27.7499999,22.04163 27.7499999,15 C27.7499999,7.95836997 22.04163,2.24999995 15,2.24999995 Z M21.66153,10.19964 L14.02227,19.79964 L14.02206,19.79946 C13.7965189,20.0840413 13.4533038,20.2499649 13.090185,20.2499649 C12.7270662,20.2499649 12.3838511,20.0840413 12.15831,19.79946 L12.15813,19.79961 L8.33849997,14.99961 L8.33867997,14.99943 C7.95858609,14.5215256 7.99633512,13.8347847 8.42651997,13.40142 L8.90396997,12.92142 C9.34385771,12.4779443 10.0519903,12.4507185 10.52463,12.85911 L10.52481,12.85887 L12.85146,15.45 L19.9131,8.57453997 L19.91328,8.57477997 C20.2604749,8.24735996 20.7694871,8.15857247 21.2070298,8.34910997 C21.6445724,8.53964748 21.9263028,8.97278109 21.9231271,9.44999998 C21.9235027,9.72229361 21.831176,9.98660864 21.66132,10.19943 L21.66153,10.19964 Z"></path>
            </g>
        </g>
    </g>
</svg>