<?xml version="1.0" encoding="UTF-8"?>
<svg width="30px" height="30px" viewBox="0 0 30 30" version="1.1" xmlns="http://www.w3.org/2000/svg" xmlns:xlink="http://www.w3.org/1999/xlink">
    <g id="icon/icon-alert" stroke="none" stroke-width="1" fill="none" fill-rule="evenodd">
        <g id="Group" transform="translate(0.999800, 2.000000)">
            <path d="M4.778,27 C2.144,27 0,24.813 0,22.125 C0,21.271 0.221,20.43 0.638,19.692 L10.359,2.444 C11.21,0.937 12.797,0 14.5,0 C16.204,0 17.791,0.937 18.641,2.444 L28.364,19.694 C28.779,20.43 29,21.271 29,22.125 C29,24.813 26.857,27 24.222,27 L4.778,27 Z" id="Fill-1" fill="#FFFFFF"></path>
            <path d="M26.4286559,20.6766133 L26.4286559,20.6766133 L16.7830676,3.42661333 L16.7823324,3.42661333 C16.3043912,2.57331333 15.4176265,1.99984667 14.4021853,1.99984667 C13.3867441,1.99984667 12.4999794,2.57331333 12.0213029,3.42661333 L12.0213029,3.42661333 L2.39924412,20.63368 C2.39850882,20.6344467 2.39850882,20.6352133 2.39777353,20.63598 L2.37571471,20.6766133 L2.37571471,20.6766133 C2.13747941,21.1021133 1.99997941,21.5966133 1.99997941,22.1248467 C1.99997941,23.7126133 3.23380294,24.9998467 4.75586176,24.9998467 L24.0485088,24.9998467 C25.5698324,24.9998467 26.8043912,23.7126133 26.8043912,22.1248467 C26.8043912,21.5966133 26.6668912,21.1021133 26.4286559,20.6766133" id="Fill-1" fill="#CD3C14"></path>
            <path d="M18.6649794,20.3411967 C18.4436559,20.5719633 18.15395,20.68773 17.8635088,20.68773 C17.5738029,20.68773 17.2833618,20.5719633 17.0613029,20.3411967 L14.4017441,17.56663 L11.7421853,20.3411967 C11.5208618,20.5719633 11.2311559,20.68773 10.9407147,20.68773 C10.6510088,20.68773 10.3605676,20.5719633 10.1392441,20.3411967 C9.69659706,19.8788967 9.69659706,19.13063 10.1392441,18.66833 L12.7988029,15.89453 L10.2340971,13.2180967 C9.79145,12.7565633 9.79145,12.0082967 10.2340971,11.5459967 C10.6767441,11.0844633 11.3943912,11.0844633 11.8370382,11.5459967 L14.4024794,14.22243 L16.9671853,11.5459967 C17.4098324,11.0844633 18.1282147,11.0844633 18.5708618,11.5459967 C19.0135088,12.0082967 19.0135088,12.7565633 18.5701265,13.2180967 L16.0054206,15.89453 L18.6649794,18.66833 C19.1076265,19.13063 19.1076265,19.8788967 18.6649794,20.3411967" id="Fill-4" fill="#FFFFFF"></path>
        </g>
    </g>
</svg>