<?xml version="1.0" encoding="UTF-8"?>
<svg width="30px" height="30px" viewBox="0 0 30 30" version="1.1" xmlns="http://www.w3.org/2000/svg" xmlns:xlink="http://www.w3.org/1999/xlink">
    <g id="icon/icon-thumb-down" stroke="none" stroke-width="1" fill="none" fill-rule="evenodd">
        <path d="M17.25,18.9090909 L15,23.4545455 L15,26.1060606 C15,27.1520606 14.16054,28 13.125,28 C13.09878,28 13.07268,27.9992121 13.04664,27.998 C13.0278,27.9972121 13.00908,27.9959394 12.99036,27.9946061 C12.99012,27.9945758 12.98985,27.9945758 12.98961,27.9945455 C12.4608,27.9563939 10.5,27.2424242 10.5,23.8333333 C10.5,23.1717273 11.25,18.9090909 11.25,18.9090909 L5.25,18.9090909 C4.00737,18.9090909 3,17.8915455 3,16.6363636 C3,15.6610606 3.60834,14.8295455 4.4625,14.5070606 C4.02423,14.0923636 3.75,13.5029394 3.75,12.8484848 C3.75,11.8731818 4.35834,11.0416667 5.2125,10.7191818 C4.77423,10.3044848 4.5,9.71506061 4.5,9.06060606 C4.5,7.86342424 5.41659,6.88315152 6.57951,6.7950303 C6.21939,6.39209091 6,5.85833333 6,5.27272727 C6,4.01754545 7.00737,3 8.25,3 L14.29179,3 C14.75754,3 15.21687,3.10954545 15.63345,3.31990909 L19.18329,5.11275758 C19.39158,5.2179697 19.62123,5.27272727 19.85409,5.27272727 L21,5.27272727 L21,13.6060606 L21,14.3636364 L21,16.6363636 L21,16.6507273 C19.43094,16.7712727 18.05295,17.6423333 17.25,18.9090909 M24.375,6.03030303 C23.75367,6.03030303 23.25,6.53906061 23.25,7.16666667 C23.25,7.79427273 23.75367,8.3030303 24.375,8.3030303 C24.99633,8.3030303 25.5,7.79427273 25.5,7.16666667 C25.5,6.53906061 24.99633,6.03030303 24.375,6.03030303 M25.5,17.3939394 L23.25,17.3939394 C22.42158,17.3939394 21.75,16.7155758 21.75,15.8787879 L21.75,6.03030303 C21.75,5.19351515 22.42158,4.51515152 23.25,4.51515152 L25.5,4.51515152 C26.32842,4.51515152 27,5.19351515 27,6.03030303 L27,15.8787879 C27,16.7155758 26.32842,17.3939394 25.5,17.3939394" id="Fill-1" fill="#000000"></path>
    </g>
</svg>