<?xml version="1.0" encoding="UTF-8"?>
<svg width="30px" height="30px" viewBox="0 0 30 30" version="1.1" xmlns="http://www.w3.org/2000/svg" xmlns:xlink="http://www.w3.org/1999/xlink">
    <g id="icon/icon-timer" stroke="none" stroke-width="1" fill="none" fill-rule="evenodd">
        <path d="M15.5,28 C8.59644118,28 3,22.4035588 3,15.5 L3,14.7647059 C3,14.3586176 3.32920588,14.0294118 3.73529412,14.0294118 L5.20588235,14.0294118 C5.61197059,14.0294118 5.94117647,14.3586176 5.94117647,14.7647059 L5.94117647,15.5 C5.94117647,16.7917353 6.1935,18.0432647 6.69114706,19.2198235 C7.17244118,20.3577353 7.86208824,21.3802941 8.74088235,22.2591176 C9.61970588,23.1379118 10.6422647,23.8275588 11.7801765,24.3088529 C12.9567353,24.8065 14.2082647,25.0588235 15.5,25.0588235 C16.7917353,25.0588235 18.0432647,24.8065 19.2198235,24.3088529 C20.3577353,23.8275588 21.3802941,23.1379118 22.2591176,22.2591176 C23.1379118,21.3802941 23.8275588,20.3577353 24.3088529,19.2198235 C24.8065,18.0432647 25.0588235,16.7917353 25.0588235,15.5 C25.0588235,14.2082647 24.8065,12.9567353 24.3088529,11.7801765 C23.8275588,10.6422647 23.1379118,9.61970588 22.2591176,8.74088235 C21.3802941,7.86208824 20.3577353,7.17244118 19.2198235,6.69114706 C18.0432647,6.1935 16.7917353,5.94117647 15.5,5.94117647 C14.2082647,5.94117647 12.9567353,6.1935 11.7801765,6.69114706 C10.6422647,7.17244118 9.61970588,7.86208824 8.74088235,8.74088235 C8.36852941,9.11326471 8.03070588,9.51182353 7.72785294,9.93373529 L10.3529412,12.5588235 L4.634,12.5588235 L4.634,12.5495882 C4.58032353,12.5555 4.52585294,12.5588235 4.47058824,12.5588235 C3.65841176,12.5588235 3,11.9004118 3,11.0882353 C3,11.0329706 3.00332353,10.9785 3.00926471,10.9248235 L3,10.9248235 L3,5.20588235 L5.62697059,7.83285294 C7.91402941,4.89202941 11.4860294,3 15.5,3 C22.4035588,3 28,8.59644118 28,15.5 C28,22.4035588 22.4035588,28 15.5,28 M16.9705882,9.61764706 L16.9705882,14.8112059 L19.9708824,17.3114412 C20.5947941,17.8313824 20.6790882,18.7587059 20.1591471,19.3826471 C19.8683235,19.7316176 19.4499706,19.9117941 19.0286176,19.9117941 C18.6966765,19.9117941 18.3629118,19.8000294 18.0879412,19.5709118 L14.5647941,16.6349706 C14.5646176,16.6347941 14.5644118,16.6346471 14.5642353,16.6344706 L14.5585294,16.6297353 C14.5526471,16.6248235 14.5471765,16.6196471 14.5413824,16.6146765 C14.5297941,16.6047059 14.5181765,16.5947647 14.5068824,16.5844412 C14.4972647,16.5756471 14.4880588,16.5665882 14.4787353,16.5575882 C14.4711176,16.5502353 14.4634118,16.543 14.4559412,16.5354706 C14.4447059,16.5241765 14.4338824,16.5125882 14.4230882,16.501 C14.418,16.4955294 14.4127941,16.4901176 14.4077647,16.4845294 C14.3958824,16.4713824 14.3844118,16.4579706 14.3730588,16.4444706 C14.3693824,16.4400882 14.3656176,16.4357647 14.362,16.4313235 C14.3502353,16.4169706 14.3388824,16.4024118 14.3277353,16.3877353 C14.3246176,16.3836471 14.3215,16.3795882 14.3184412,16.3754706 C14.3074412,16.3606471 14.2968235,16.3456471 14.2864412,16.3305 C14.2832941,16.3259118 14.2801471,16.3213529 14.2770588,16.3167353 C14.2673235,16.3021765 14.2579118,16.2874412 14.2487647,16.2725882 C14.2451471,16.2667647 14.2415294,16.2609118 14.238,16.2550294 C14.2298529,16.2414118 14.222,16.2276765 14.2143235,16.2138529 C14.21,16.2061176 14.2057353,16.1983824 14.2015588,16.1905588 C14.1951471,16.1784706 14.1889706,16.1663235 14.1829118,16.1541176 C14.1778824,16.1440294 14.1729706,16.1339412 14.1681765,16.1237647 C14.1634412,16.1135882 14.1588529,16.1033824 14.1543529,16.0931471 C14.1488235,16.0806176 14.1434412,16.0680588 14.1382647,16.0553529 C14.1349118,16.0471765 14.1317059,16.0389706 14.1285588,16.0307353 C14.1228235,16.0159706 14.1172941,16.0011176 14.1120294,15.9860882 C14.1097941,15.9796471 14.1076176,15.9731471 14.1054706,15.9666765 C14.0999118,15.9501176 14.0946176,15.9334412 14.0896471,15.9166176 C14.0880882,15.9112941 14.0866176,15.9059706 14.0851176,15.9006471 C14.0801176,15.8829706 14.0753824,15.8651765 14.0710294,15.8472353 C14.0698235,15.8422647 14.0687353,15.8372647 14.0675588,15.8322647 C14.0634118,15.8142941 14.0595,15.7962353 14.056,15.7780294 C14.0549412,15.7723824 14.054,15.7667059 14.0529706,15.7610294 C14.0498824,15.7437059 14.0469118,15.7263529 14.0444412,15.7088235 C14.0433529,15.7013529 14.0425294,15.6938235 14.0415882,15.6863529 C14.0395882,15.6706765 14.0376471,15.6550294 14.0361471,15.6392059 C14.0351471,15.6285588 14.0345,15.6178824 14.0337353,15.6072353 C14.0327941,15.5944118 14.0317353,15.5816471 14.0311471,15.5687647 C14.0304118,15.5532647 14.0302059,15.5377353 14.0299706,15.5222353 C14.0298529,15.5147941 14.0294118,15.5074412 14.0294118,15.5 L14.0294118,15.4927941 L14.0294118,15.4917059 L14.0294118,9.61764706 C14.0294118,8.80547059 14.6878235,8.14705882 15.5,8.14705882 C16.3121765,8.14705882 16.9705882,8.80547059 16.9705882,9.61764706" id="Fill-1" fill="#000000"></path>
    </g>
</svg>