<?xml version="1.0" encoding="UTF-8"?>
<svg width="30px" height="30px" viewBox="0 0 30 30" version="1.1" xmlns="http://www.w3.org/2000/svg" xmlns:xlink="http://www.w3.org/1999/xlink">
    <g id="icon/icon-calendar" stroke="none" stroke-width="1" fill="none" fill-rule="evenodd">
        <path d="M19.1290323,8.24193548 C19.1290323,7.58235484 19.4458387,6.99683871 19.9354839,6.629 L19.9354839,8.24193548 C19.9354839,8.91 20.4770645,9.4516129 21.1451613,9.4516129 C21.8132581,9.4516129 22.3548387,8.91 22.3548387,8.24193548 L22.3544839,7.83870968 L22.3548387,7.83870968 L22.3548387,6.64516129 C22.8442903,7.013 23.1612903,7.58251613 23.1612903,8.24193548 C23.1612903,9.35541935 22.2586452,10.2580645 21.1451613,10.2580645 C20.0316774,10.2580645 19.1290323,9.35541935 19.1290323,8.24193548 L19.1290323,8.24193548 Z M7.83870968,8.24193548 C7.83870968,7.58235484 8.15551613,6.99683871 8.64516129,6.629 L8.64516129,8.24193548 C8.64516129,8.91 9.18677419,9.4516129 9.85483871,9.4516129 C10.5229032,9.4516129 11.0645161,8.91 11.0645161,8.24193548 L11.0645161,7.83870968 L11.064871,7.83870968 L11.064871,6.62925806 C11.5543226,6.99709677 11.8709677,7.58251613 11.8709677,8.24193548 C11.8709677,9.35541935 10.9683226,10.2580645 9.85483871,10.2580645 C8.74135484,10.2580645 7.83870968,9.35541935 7.83870968,8.24193548 L7.83870968,8.24193548 Z M26.3870968,26.3870968 L5.82258065,26.3870968 C5.15448387,26.3870968 4.61290323,25.8455161 4.61290323,25.1774194 L4.61290323,12.6774194 L25.1774194,12.6774194 C25.8455161,12.6774194 26.3870968,13.219 26.3870968,13.8870968 L26.3870968,26.3870968 Z M25.5806452,5.41935484 L22.3548387,5.41935484 L22.3548387,4.19354839 C22.3548387,3.52548387 21.8132581,3 21.1451613,3 C20.4770645,3 19.9354839,3.5416129 19.9354839,4.20967742 L19.9354839,5.41935484 L11.064871,5.41935484 L11.0645161,4.20967742 C11.0645161,3.5416129 10.5229032,3 9.85483871,3 C9.18677419,3 8.64516129,3.5416129 8.64516129,4.20967742 L8.64516129,5.41935484 L3,5.41935484 L3,25.5806452 C3,26.9168065 4.08316129,28 5.41935484,28 L28,28 L28,7.83870968 C28,6.50251613 26.9168387,5.41935484 25.5806452,5.41935484 L25.5806452,5.41935484 Z" id="Fill-1" fill="#000000"></path>
    </g>
</svg>