<?xml version="1.0" encoding="UTF-8"?>
<svg width="30px" height="30px" viewBox="0 0 30 30" version="1.1" xmlns="http://www.w3.org/2000/svg" xmlns:xlink="http://www.w3.org/1999/xlink">
    <g id="icon/icon-shopping" stroke="none" stroke-width="1" fill="none" fill-rule="evenodd">
        <path d="M19.9885057,15.0941764 L19.4832506,19.1272463 L23.8843034,19.1272463 L25.6261931,15.0941764 L19.9885057,15.0941764 Z M17.7366299,8.16232945 C17.7366299,7.43550573 17.4656092,6.74836741 16.9460644,6.2275529 C16.4265195,5.70667386 15.7410989,5.41984193 15.016092,5.41984193 C14.2910851,5.41984193 13.6056644,5.70667386 13.0861195,6.2275529 C12.5665747,6.74836741 12.2939126,7.43550573 12.2939126,8.16232945 L12.2979034,11.8677205 L17.7351494,11.8677205 L17.7366299,8.16232945 Z M4.21842299,15.0941764 L6.11569655,19.1272463 L10.4695034,19.1272463 L9.85057471,15.0941764 L4.21842299,15.0941764 Z M9.04597701,25.5801581 L11.4597701,25.5801581 L10.8408736,21.5470882 L7.11494253,21.5470882 L9.04597701,25.5801581 Z M12.908046,19.1272463 L17.2528736,19.1272463 L17.7356322,15.0941764 L12.2643678,15.0941764 L12.908046,19.1272463 Z M13.7126437,25.5801581 L16.2873563,25.5801581 L16.9310345,21.5470882 L13.0689655,21.5470882 L13.7126437,25.5801581 Z M20.954023,25.5801581 L22.8850575,21.5470882 L19.183908,21.5470882 L18.5301885,25.5801581 L20.954023,25.5801581 Z M28.7235402,14.3108574 L22.4022989,28 L7.43678161,28 L1.22918161,14.3108574 C1.08377471,14.0683892 1,13.7844934 1,13.4809484 C1,12.5899626 1.72043678,11.8677205 2.6091954,11.8677205 L9.88282299,11.8677205 L9.88282299,8.16232945 C9.88282299,5.32304825 12.183908,3 15.016092,3 C17.8482759,3 20.1493609,5.32304825 20.1493609,8.16232945 L20.1493609,11.8677205 L27.3435264,11.8677205 C28.2323172,11.8677205 29,12.5899626 29,13.4809484 C29,13.7844934 28.8689793,14.0683892 28.7235402,14.3108574 L28.7235402,14.3108574 Z" id="Fill-1" fill="#000000"></path>
    </g>
</svg>