<?xml version="1.0" encoding="UTF-8"?>
<svg width="30px" height="30px" viewBox="0 0 30 30" version="1.1" xmlns="http://www.w3.org/2000/svg" xmlns:xlink="http://www.w3.org/1999/xlink">
    <g id="icon/icon-check" stroke="none" stroke-width="1" fill="none" fill-rule="evenodd">
        <path d="M27,7 C27,5.89544615 26.112292,5 25.0172467,5 C24.4926933,5 24.0161027,5.20578462 23.661504,5.54129231 L23.6611667,5.54092308 L11.931044,17 L8.066216,12.6814769 L8.06587867,12.6819077 C7.71906933,12.3817538 7.26863733,12.2 6.77585467,12.2 C6.228332,12.2 5.73266667,12.4238462 5.373836,12.7857538 L4.58073467,13.5857538 C4.22193467,13.9477231 4,14.4477231 4,15 C4,15.4727077 4.16296267,15.9068308 4.43482267,16.2491385 L4.43448533,16.2493846 L10.7793267,24.2494154 L10.7796333,24.2491692 C11.142972,24.7066769 11.7011973,25 12.3275947,25 C12.953992,25 13.512156,24.7066769 13.8755253,24.2491692 L13.8758627,24.2494462 L26.5655147,8.24938462 L26.5651773,8.24913846 C26.837068,7.90683077 27,7.47270769 27,7" id="Fill-1" fill="#000000"></path>
    </g>
</svg>