<?xml version="1.0" encoding="UTF-8"?>
<svg width="30px" height="30px" viewBox="0 0 30 30" version="1.1" xmlns="http://www.w3.org/2000/svg" xmlns:xlink="http://www.w3.org/1999/xlink">
    <g id="icon/icon-thumb-up" stroke="none" stroke-width="1" fill="none" fill-rule="evenodd">
        <path d="M21,14.3492697 L21,14.3636333 L21,16.6363606 L21,17.3939364 L21,25.7272697 L19.85409,25.7272697 C19.62123,25.7272697 19.39158,25.7820273 19.18329,25.8872394 L15.63345,27.6800879 C15.21687,27.8904515 14.75754,27.999997 14.29179,27.999997 L8.25,27.999997 C7.00737,27.999997 6,26.9824515 6,25.7272697 C6,25.1416636 6.21939,24.6079061 6.57951,24.2049667 C5.41659,24.1168758 4.5,23.1365727 4.5,21.9393909 C4.5,21.2849364 4.77423,20.6955121 5.2125,20.2808152 C4.35834,19.9583303 3.75,19.1268152 3.75,18.1515121 C3.75,17.4970576 4.02423,16.9076333 4.4625,16.4929364 C3.60834,16.1704515 3,15.3389364 3,14.3636333 C3,13.1084515 4.00737,12.0909061 5.25,12.0909061 L11.25,12.0909061 C11.25,12.0909061 10.5,7.8282697 10.5,7.16666364 C10.5,3.75757273 12.4608,3.04360303 12.98961,3.00545152 C12.98985,3.00542121 12.99012,3.00542121 12.99036,3.00539091 C13.00908,3.00405758 13.0278,3.00278485 13.04664,3.00199697 C13.07268,3.00078485 13.09878,2.99999697 13.125,2.99999697 C14.16054,2.99999697 15,3.84793636 15,4.89393636 L15,7.54545152 L17.25,12.0909061 C18.05295,13.3576636 19.43094,14.2287242 21,14.3492697 M25.5,23.8333303 C25.5,23.2057242 24.99633,22.6969667 24.375,22.6969667 C23.75367,22.6969667 23.25,23.2057242 23.25,23.8333303 C23.25,24.4609364 23.75367,24.9696939 24.375,24.9696939 C24.99633,24.9696939 25.5,24.4609364 25.5,23.8333303 M27,15.1212091 L27,24.9696939 C27,25.8064818 26.32842,26.4848455 25.5,26.4848455 L23.25,26.4848455 C22.42158,26.4848455 21.75,25.8064818 21.75,24.9696939 L21.75,15.1212091 C21.75,14.2844212 22.42158,13.6060576 23.25,13.6060576 L25.5,13.6060576 C26.32842,13.6060576 27,14.2844212 27,15.1212091" id="Fill-1" fill="#000000"></path>
    </g>
</svg>