<?xml version="1.0" encoding="UTF-8"?>
<svg width="30px" height="30px" viewBox="0 0 30 30" version="1.1" xmlns="http://www.w3.org/2000/svg" xmlns:xlink="http://www.w3.org/1999/xlink">
    <g id="icon/icon-info-2" stroke="none" stroke-width="1" fill="none" fill-rule="evenodd">
        <path d="M19.1764706,23.5882353 L12.5588235,23.5882353 L12.5588235,22.8312647 L12.7143235,22.8263529 C13.1718235,22.8115882 13.5118235,22.6816765 13.7251471,22.44 C13.8009118,22.3525882 13.9297353,22.0547059 13.9297353,21.0531471 L13.9297353,14.3709118 C13.9297353,13.4182059 13.7967059,13.0590588 13.6852941,12.9255882 C13.5276765,12.7376176 13.1995294,12.6271471 12.7097059,12.5974706 L12.5588235,12.5883529 L12.5588235,11.8235588 L17.7058824,11.8235588 L17.7058824,21.0531471 C17.7058824,22.0065294 17.9546176,22.3654412 18.0658824,22.4985 C18.2229412,22.6864118 18.5270588,22.7967941 19.0254412,22.8265 L19.1764706,22.8354412 L19.1764706,23.5882353 Z M15.5,5.94120588 C16.7182647,5.94120588 17.7058824,6.92882353 17.7058824,8.14708824 C17.7058824,9.36535294 16.7182647,10.3529706 15.5,10.3529706 C14.2817353,10.3529706 13.2941176,9.36535294 13.2941176,8.14708824 C13.2941176,6.92882353 14.2817353,5.94120588 15.5,5.94120588 L15.5,5.94120588 Z M15.5,3 C8.59647059,3 3,8.59647059 3,15.5 C3,22.4035294 8.59647059,28 15.5,28 C22.4035294,28 28,22.4035294 28,15.5 C28,8.59647059 22.4035294,3 15.5,3 L15.5,3 Z" id="Fill-1" fill="#000000"></path>
    </g>
</svg>