<?xml version="1.0" encoding="UTF-8"?>
<svg width="30px" height="30px" viewBox="0 0 30 30" version="1.1" xmlns="http://www.w3.org/2000/svg" xmlns:xlink="http://www.w3.org/1999/xlink">
    <g id="icon/icon-search" stroke="none" stroke-width="1" fill="none" fill-rule="evenodd">
        <path d="M12.765625,6.125 C9.098125,6.125 6.125,9.098125 6.125,12.765625 C6.125,16.433125 9.098125,19.40625 12.765625,19.40625 C16.433125,19.40625 19.40625,16.433125 19.40625,12.765625 C19.40625,9.098125 16.433125,6.125 12.765625,6.125 M27.7714062,26.5972813 L26.5972813,27.7714063 C26.2934375,28.07525 25.7961875,28.07525 25.4923437,27.7714063 L18.437125,20.7162187 C16.8382812,21.85875 14.8805313,22.53125 12.765625,22.53125 C7.37221875,22.53125 3,18.1590312 3,12.765625 C3,7.37221875 7.37221875,3 12.765625,3 C18.1590312,3 22.53125,7.37221875 22.53125,12.765625 C22.53125,14.8805313 21.85875,16.8382813 20.7162187,18.4370938 L27.7714062,25.4923125 C28.0752812,25.7962188 28.0752812,26.2934063 27.7714062,26.5972813" id="Fill-1" fill="#000000"></path>
    </g>
</svg>