<?xml version="1.0" encoding="UTF-8"?>
<svg width="30px" height="30px" viewBox="0 0 30 30" version="1.1" xmlns="http://www.w3.org/2000/svg" xmlns:xlink="http://www.w3.org/1999/xlink">
    <g id="icon/icon-smartwatch" stroke="none" stroke-width="1" fill="none" fill-rule="evenodd">
        <path d="M19.2386939,8.07137805 C20.696,8.07137805 21.8770612,9.26267073 21.8767347,10.7315366 L21.8767347,20.2681341 C21.8767347,21.7376585 20.696,22.9282927 19.2386939,22.9282927 L9.78138776,22.9282927 C8.32473469,22.9282927 7.14334694,21.7376585 7.14334694,20.2681341 L7.14334694,10.7315366 C7.14334694,9.26267073 8.32473469,8.07137805 9.78138776,8.07137805 L19.2386939,8.07137805 Z M20.5709388,20.2681341 L20.5706122,20.2681341 L20.5706122,10.7315366 C20.5706122,9.9910122 19.9730612,9.38845122 19.2386939,9.38845122 L9.78138776,9.38845122 C9.04702041,9.38845122 8.44946939,9.9910122 8.44946939,10.7315366 L8.44946939,20.2681341 C8.44946939,21.0086585 9.04702041,21.6112195 9.78138776,21.6112195 L19.2390204,21.6112195 C19.9733878,21.6112195 20.5709388,21.0086585 20.5709388,20.2681341 Z M9.78138776,23.7317073 L19.2386939,23.7317073 C19.5668571,23.7317073 19.8829388,23.6823171 20.1836735,23.5953902 L20.1836735,27.6417683 C20.1836735,28.3236829 19.6354286,28.8765244 18.9591837,28.8765244 L10.0612245,28.8765244 C9.38497959,28.8765244 8.83673469,28.3236829 8.83673469,27.6417683 L8.83673469,23.5953902 C9.13714286,23.6823171 9.45355102,23.7317073 9.78138776,23.7317073 Z M19.2386939,7.26829268 L9.78138776,7.26829268 C9.45355102,7.26829268 9.13714286,7.31768293 8.83673469,7.40460976 L8.83673469,3.35823171 C8.83673469,2.67631707 9.38497959,2.12347561 10.0612245,2.12347561 L18.9591837,2.12347561 C19.6354286,2.12347561 20.1836735,2.67631707 20.1836735,3.35823171 L20.1836735,7.40460976 C19.8829388,7.31768293 19.5668571,7.26829268 19.2386939,7.26829268 Z M22.6019592,11.1371951 C22.7485714,11.1371951 22.8674286,11.2570488 22.8674286,11.404561 L22.8674286,13.5036463 C22.8674286,13.6514878 22.7485714,13.7713415 22.6019592,13.7713415 C22.5986939,13.7713415 22.5954286,13.7693659 22.5918367,13.7693659 L22.5918367,13.7713415 L22.1428571,13.7713415 L22.1428571,11.1371951 L22.5918367,11.1371951 L22.5918367,11.1391707 C22.595102,11.1391707 22.5983673,11.1371951 22.6019592,11.1371951 Z M22.1428571,19.8628049 L22.1428571,17.2286585 L22.6326531,17.2286585 L22.6326531,18.3501463 L22.3877551,18.3501463 L22.3877551,18.7413171 L22.6326531,18.7413171 L22.6326531,19.8628049 L22.1428571,19.8628049 Z" id="Combined-Shape" fill="#000000"></path>
    </g>
</svg>