<?xml version="1.0" encoding="UTF-8"?>
<svg width="30px" height="30px" viewBox="0 0 30 30" version="1.1" xmlns="http://www.w3.org/2000/svg" xmlns:xlink="http://www.w3.org/1999/xlink">
    <g id="icon/icon-smartphone" stroke="none" stroke-width="1" fill="none" fill-rule="evenodd">
        <path d="M20,1 L10,1 C8.896,1 8,1.896 8,3 L8,27 C8,28.104 8.896,29 10,29 L20,29 C21.104,29 22,28.104 22,27 L22,3 C22,1.896 21.104,1 20,1 Z M14,3 L18,3 L18,4 L14,4 L14,3 Z M12,3 L13,3 L13,4 L12,4 L12,3 Z M15,28 C14.447,28 14,27.553 14,27 C14,26.448 14.447,26 15,26 C15.553,26 16,26.448 16,27 C16,27.553 15.553,28 15,28 Z M21,24 L9,24 L9,6 L21,6 L21,24 Z" id="Shape" fill="#000000"></path>
    </g>
</svg>