<?xml version="1.0" encoding="UTF-8"?>
<svg width="30px" height="30px" viewBox="0 0 30 30" version="1.1" xmlns="http://www.w3.org/2000/svg" xmlns:xlink="http://www.w3.org/1999/xlink">
    <g id="icon/icon-no-sim" stroke="none" stroke-width="1" fill="none" fill-rule="evenodd">
        <path d="M19.4814815,14.257176 C19.4814815,13.7995726 19.1166726,13.4286046 18.6666667,13.4286046 L15.4074074,13.4286046 L15.4074074,17.5714286 L19.4814815,17.5714286 L19.4814815,14.257176 Z M9.7037037,13.4286046 L6.44444444,13.4286046 C5.99443852,13.4286046 5.62962963,13.7995726 5.62962963,14.257176 L5.62962963,17.5714286 L9.7037037,17.5714286 L9.7037037,13.4286046 Z M17.1389867,18.4 L15.4074074,18.4 L15.4074074,19.8161943 C15.0961156,20.1748663 14.8224681,20.5680069 14.5925926,20.9893851 L14.5925926,13.4286046 L10.5185185,13.4286046 L10.5185185,17.5714286 L10.5185185,17.8697143 L10.5185185,18.4 L5.62962963,18.4 L5.62962963,22.5428571 L13.9831437,22.5428571 C13.9148296,22.8127726 13.8629748,23.0893829 13.8283941,23.3714286 L10.5185185,23.3714286 L10.5185185,27.5142857 L9.7037037,27.5142857 L9.7037037,23.3714286 L5.62962963,23.3714286 L5.62962963,26.6857474 C5.62962963,27.1433177 5.99443852,27.5143189 6.44444444,27.5143189 L14.6500533,27.5143189 C15.0049541,28.1381669 15.4571437,28.6975189 15.9852741,29.1714286 L5.62962963,29.1714286 C4.72965037,29.1714286 4,28.4294926 4,27.5143189 L4,2.657176 C4,1.74196914 4.72965037,1.00003314 5.62962963,1.00003314 L15.4074074,1.00003314 L15.4074074,1 L21.1111111,6.8 L21.1111111,6.80003314 L21.1111111,17.6228994 C20.8441778,17.5890274 20.5722578,17.5714286 20.2962963,17.5714286 C19.1507319,17.5714286 18.0744267,17.8722994 17.1389867,18.4 L17.1389867,18.4 Z M14.6925926,27.5142857 L14.5925926,27.5142857 L14.5925926,27.4106149 C14.6255478,27.4453154 14.6586164,27.4799829 14.6925926,27.5142857 L14.6925926,27.5142857 Z M23.7532622,21.8564354 L22.6009511,20.6846697 L20.2962963,23.0282343 L17.9916741,20.6846697 L16.8393304,21.8564354 L19.1439852,24.2 L16.8393304,26.5435646 L17.9916741,27.7153303 L20.2962963,25.3717989 L22.6009511,27.7153303 L23.7532622,26.5435646 L21.44864,24.2 L23.7532622,21.8564354 Z M20.2962963,30 C17.1462222,30 14.5925926,27.4032571 14.5925926,24.2 C14.5925926,20.9967429 17.1462222,18.4 20.2962963,18.4 C23.4463704,18.4 26,20.9967429 26,24.2 C26,27.4032571 23.4463704,30 20.2962963,30 L20.2962963,30 Z" id="Fill-1" fill="#000000"></path>
    </g>
</svg>