<?xml version="1.0" encoding="UTF-8"?>
<svg width="30px" height="30px" viewBox="0 0 30 30" version="1.1" xmlns="http://www.w3.org/2000/svg" xmlns:xlink="http://www.w3.org/1999/xlink">
    <g id="icon/icon-more-add" stroke="none" stroke-width="1" fill="none" fill-rule="evenodd">
        <path d="M23.4117647,16.9705753 C23.4117647,17.3768404 23.0692376,17.7058702 22.6470588,17.7058702 L17.2941176,17.7058702 L17.2941176,22.8529351 C17.2941176,23.2591709 16.9515906,23.5882301 16.5294118,23.5882301 L13.4705882,23.5882301 C13.0484094,23.5882301 12.7058824,23.2591709 12.7058824,22.8529351 L12.7058824,17.7058702 L7.35294118,17.7058702 C6.93076235,17.7058702 6.58823529,17.3768404 6.58823529,16.9705753 L6.58823529,14.0293953 C6.58823529,13.6231596 6.93076235,13.2941003 7.35294118,13.2941003 L12.7058824,13.2941003 L12.7058824,8.14703547 C12.7058824,7.7407997 13.0484094,7.41174048 13.4705882,7.41174048 L16.5294118,7.41174048 C16.9515906,7.41174048 17.2941176,7.7407997 17.2941176,8.14703547 L17.2941176,13.2941003 L22.6470588,13.2941003 C23.0692376,13.2941003 23.4117647,13.6231596 23.4117647,14.0293953 L23.4117647,16.9705753 Z M15,3 C7.83712235,3 2,8.58830069 2,15.4999853 C2,22.4116699 7.83712235,28 15,28 C22.1628165,28 28,22.4116699 28,15.4999853 C28,8.58830069 22.1628165,3 15,3 L15,3 Z" id="Fill-1" fill="#000000"></path>
    </g>
</svg>