<?xml version="1.0" encoding="UTF-8"?>
<svg width="30px" height="30px" viewBox="0 0 30 30" version="1.1" xmlns="http://www.w3.org/2000/svg" xmlns:xlink="http://www.w3.org/1999/xlink">
    <g id="icon/icon-fast-delivery" stroke="none" stroke-width="1" fill="none" fill-rule="evenodd">
        <path d="M27.5,14.36 L25.25,14.36 L20.77247,6.7979696 C20.51051,6.3220272 19.976,6 19.4,6 L2,6 C2,7.2591984 3.00737,8.28 4.25,8.28 L12.5,8.28 C12.91421,8.28 13.25,8.6202672 13.25,9.04 C13.25,9.4597328 12.91421,9.8 12.5,9.8 L2.75,9.8 C2.75,11.0591984 3.75737,12.08 5,12.08 L12.5,12.08 C12.91421,12.08 13.25,12.4202672 13.25,12.84 C13.25,13.2597328 12.91421,13.6 12.5,13.6 L3.5,13.6 C3.5,14.8591984 4.50737,15.88 5.75,15.88 L12.5,15.88 C12.91421,15.88 13.25,16.2202672 13.25,16.64 C13.25,17.0597328 12.91421,17.4 12.5,17.4 L6.5,17.4 L6.5,21.656 L6.50096,21.656 C6.54086,23.509792 8.03612,25 9.875,25 C11.714,25 13.20917,23.509792 13.24904,21.656 L19.25093,21.656 C19.29083,23.509792 20.78609,25 22.625,25 C24.464,25 25.95917,23.509792 25.99907,21.656 L29,21.656 L29,15.88 C29,15.040504 28.32845,14.36 27.5,14.36" id="Fill-1" fill="#000000"></path>
    </g>
</svg>