<?xml version="1.0" encoding="UTF-8"?>
<svg width="30px" height="30px" viewBox="0 0 30 30" version="1.1" xmlns="http://www.w3.org/2000/svg" xmlns:xlink="http://www.w3.org/1999/xlink">
    <g id="icon/icon-sim" stroke="none" stroke-width="1" fill="none" fill-rule="evenodd">
        <path d="M22.2857143,24.0294118 L18,24.0294118 L18,28.2941176 L17.1428571,28.2941176 L17.1428571,24.0294118 L12.8571429,24.0294118 L12.8571429,28.2941176 L12,28.2941176 L12,24.0294118 L7.71428571,24.0294118 L7.71428571,27.4411765 C7.71428571,27.9122388 8.09804571,28.2941176 8.57142857,28.2941176 L21.4285714,28.2941176 C21.9019543,28.2941176 22.2857143,27.9122388 22.2857143,27.4411765 L22.2857143,24.0294118 Z M18,23.1764706 L22.2857143,23.1764706 L22.2857143,18.9117647 L18,18.9117647 L18,23.1764706 Z M22.2857143,14.6470588 C22.2857143,14.1760306 21.9019543,13.7941176 21.4285714,13.7941176 L18,13.7941176 L18,18.0588235 L22.2857143,18.0588235 L22.2857143,14.6470588 Z M17.1428571,13.7941176 L12.8571429,13.7941176 L12.8571429,18.0588235 L12.8571429,18.3658824 L12.8571429,18.9117647 L7.71428571,18.9117647 L7.71428571,23.1764706 L17.1428571,23.1764706 L17.1428571,13.7941176 Z M7.71428571,14.6470588 L7.71428571,18.0588235 L12,18.0588235 L12,13.7941176 L8.57142857,13.7941176 C8.09804571,13.7941176 7.71428571,14.1760306 7.71428571,14.6470588 L7.71428571,14.6470588 Z M22.2857143,30 L7.71428571,30 C6.76755429,30 6,29.2362424 6,28.2941176 L6,2.70588235 C6,1.76379176 6.76755429,1 7.71428571,1 L18,1 L24,6.97058824 L24,28.2941176 C24,29.2362765 23.23248,30 22.2857143,30 L22.2857143,30 Z" id="Fill-1" fill="#000000"></path>
    </g>
</svg>