<?xml version="1.0" encoding="UTF-8"?>
<svg width="20px" height="30px" viewBox="0 0 20 30" version="1.1" xmlns="http://www.w3.org/2000/svg" xmlns:xlink="http://www.w3.org/1999/xlink">
    <g id="Page-1" stroke="none" stroke-width="1" fill="none" fill-rule="evenodd">
        <path d="M9.70588235,12.7058824 C6.19725882,12.7058824 3.35294118,9.86156471 3.35294118,6.35294118 C3.35294118,2.84435294 6.19725882,0 9.70588235,0 C13.2144706,0 16.0588235,2.84435294 16.0588235,6.35294118 C16.0588235,9.86156471 13.2144706,12.7058824 9.70588235,12.7058824 L9.70588235,12.7058824 Z M3.52941176,30 C1.58015294,30 0,28.4198824 0,26.4705882 L0,19.0588235 L0.00225882353,19.0588235 C0.0662470588,16.1244353 1.72207059,13.5826941 4.14031765,12.2617765 C5.59355294,13.6310824 7.55156471,14.4705882 9.70588235,14.4705882 C11.8603412,14.4705882 13.8184588,13.6309765 15.2717294,12.2614941 C17.7384353,13.6088471 19.4117647,16.2265765 19.4117647,19.2352941 L19.4117647,30 L3.52941176,30 Z" id="icon-avatar" fill="#000000"></path>
    </g>
</svg>