<?xml version="1.0" encoding="UTF-8"?>
<svg width="30px" height="30px" viewBox="0 0 30 30" version="1.1" xmlns="http://www.w3.org/2000/svg" xmlns:xlink="http://www.w3.org/1999/xlink">
    <g id="icon/icon-gift" stroke="none" stroke-width="1" fill="none" fill-rule="evenodd">
        <path d="M27.21875,26.4374688 C27.21875,27.3004063 26.5191875,27.9999688 25.65625,27.9999688 L16.28125,27.9999688 L16.28125,16.28125 L27.21875,16.28125 L27.21875,26.4374688 Z M14.71875,27.9999688 L5.34375,27.9999688 C4.4808125,27.9999688 3.78125,27.3004063 3.78125,26.4374688 L3.78125,16.28125 L14.71875,16.28125 L14.71875,27.9999688 Z M20.9626563,7.48159375 C21.7105312,7.05378125 21.9710625,6.0973125 21.543375,5.34946875 C21.2657812,4.86403125 20.7451875,4.5625 20.1847813,4.5625 C19.9117812,4.5625 19.65175,4.6320625 19.4119375,4.76925 C19.1525312,4.91765625 18.9793125,5.08634375 18.85025,5.31621875 L18.8424062,5.33021875 L18.8342812,5.34403125 L17.4515625,7.69309375 L20.0210625,7.69309375 L20.0367812,7.69309375 L20.0524687,7.69340625 C20.0623125,7.693625 20.0722812,7.69371875 20.08225,7.69371875 C20.3870625,7.69371875 20.7408437,7.60846875 20.9626563,7.48159375 L20.9626563,7.48159375 Z M12.1657187,5.34403125 L12.1575938,5.33021875 L12.14975,5.31621875 C12.0207188,5.08634375 11.8474688,4.91765625 11.5880625,4.76925 C11.34825,4.6320625 11.0882813,4.5625 10.8154062,4.5625 L10.8153125,4.5625 C10.2548437,4.56253125 9.73421875,4.8640625 9.456625,5.34946875 C9.0289375,6.0973125 9.28946875,7.05378125 10.0373437,7.48159375 C10.2591563,7.60846875 10.6129375,7.69371875 10.91775,7.69371875 C10.9277188,7.69371875 10.9376875,7.693625 10.9475313,7.69340625 L10.9632187,7.69309375 L10.9789375,7.69309375 L13.5484375,7.69309375 L12.1657187,5.34403125 Z M16.28125,14.71875 L16.28125,9.25559375 L14.71875,9.25559375 L14.71875,14.71875 L3,14.71875 L3,10.8125 C3,9.94953125 3.6995625,9.25 4.5625,9.25 L10.7188438,9.25 C10.2319062,9.2204375 9.69196875,9.08409375 9.2615,8.83784375 C7.76346875,7.98090625 7.2435625,6.0718125 8.10028125,4.57378125 C8.6770625,3.5651875 9.73103125,3.0000625 10.81525,3 C11.341375,2.99996875 11.8744688,3.133 12.3639062,3.41296875 C12.8728437,3.70409375 13.24475,4.07484375 13.5122812,4.5514375 L15.5,7.92834375 L17.4877187,4.5514375 C17.75525,4.07484375 18.1271562,3.70409375 18.6360938,3.41296875 C19.1255313,3.133 19.658625,3 20.1847813,3 C21.2689687,3 22.3229375,3.5651875 22.89975,4.57378125 C23.7564375,6.0718125 23.2365312,7.98090625 21.7385,8.83784375 C21.3080312,9.08409375 20.7680625,9.2204375 20.2811562,9.25 L26.4375,9.25 C27.3004375,9.25 28,9.94953125 28,10.8125 L28,14.71875 L16.28125,14.71875 Z" id="Fill-1" fill="#000000"></path>
    </g>
</svg>