<?xml version="1.0" encoding="UTF-8"?>
<svg width="30px" height="30px" viewBox="0 0 30 30" version="1.1" xmlns="http://www.w3.org/2000/svg" xmlns:xlink="http://www.w3.org/1999/xlink">
    <g id="icon/icon-info" stroke="none" stroke-width="1" fill="none" fill-rule="evenodd">
        <path d="M5.7778,29 C3.1438,29 0.9998,26.813 0.9998,24.125 C0.9998,23.271 1.2208,22.43 1.6378,21.692 L11.3588,4.444 C12.2098,2.937 13.7968,2 15.4998,2 C17.2038,2 18.7908,2.937 19.6408,4.444 L29.3638,21.694 C29.7788,22.43 29.9998,23.271 29.9998,24.125 C29.9998,26.813 27.8568,29 25.2218,29 L5.7778,29 Z" id="Fill-1" fill="#FFFFFF"></path>
        <rect id="Rectangle" fill="#000000" x="13" y="9" width="5" height="16"></rect>
        <path d="M15.5295858,21.02 C14.7533432,21.02 14.1240533,21.672188 14.1240533,22.4766667 C14.1240533,23.2811453 14.7533432,23.9333333 15.5295858,23.9333333 C16.3058284,23.9333333 16.9351183,23.2811453 16.9351183,22.4766667 C16.9351183,21.672188 16.3058284,21.02 15.5295858,21.02 M15.5295858,9.36666667 C14.7533432,9.36666667 14.1240533,10.0188547 14.1240533,10.8233333 C14.1240533,10.8528653 14.1251479,10.882152 14.1268343,10.9112547 L14.1268047,10.9112547 L14.592574,18.845212 C14.5928402,19.3813267 15.0122485,19.5827453 15.5295858,19.5827453 C16.0469231,19.5827453 16.4663314,19.3813267 16.4665976,18.845212 L16.9311538,10.9295013 L16.9310059,10.9295013 C16.933432,10.894388 16.9351183,10.8590907 16.9351183,10.8233333 C16.9351183,10.0188547 16.3058284,9.36666667 15.5295858,9.36666667 M28,24.125 C28,25.7127973 26.7563609,27 25.2222189,27 L5.77778107,27 C4.24363905,27 3,25.7127973 3,24.125 C3,23.596644 3.1383432,23.10196 3.37863905,22.6765213 L3.37840237,22.676368 L3.4012426,22.6358573 C3.40159763,22.6352133 3.40192308,22.6346 3.40227811,22.633956 L13.1006213,5.426368 L13.100858,5.42652133 C13.5826923,4.57346667 14.4763609,4 15.5,4 C16.5236391,4 17.4173077,4.57346667 17.899142,5.42652133 L17.8993787,5.426368 L27.6216272,22.676368 L27.6213609,22.6765213 C27.8616568,23.1019907 28,23.596644 28,24.125" id="Fill-1" fill="#FFD600"></path>
    </g>
</svg>