<?xml version="1.0" encoding="UTF-8"?>
<svg width="30px" height="30px" viewBox="0 0 30 30" version="1.1" xmlns="http://www.w3.org/2000/svg" xmlns:xlink="http://www.w3.org/1999/xlink">
    <g id="icon/customer-service" stroke="none" stroke-width="1" fill="none" fill-rule="evenodd">
        <path d="M22.3323824,21.3823529 L17.5798529,21.3823529 C17.2694412,20.5042941 16.4192941,19.8812647 15.4278235,19.9129118 C14.2898529,19.9492353 13.3570588,20.8614706 13.2972647,21.9984412 C13.2303235,23.2708529 14.2422353,24.3235294 15.5,24.3235294 C16.4604118,24.3235294 17.277,23.7095882 17.5798529,22.8529412 L21.5123529,22.8529412 C21.3777941,23.0565 21.2373529,23.2541176 21.0909412,23.4455294 C20.3371471,24.4312353 19.4684706,25.2001176 18.5089412,25.7308235 C17.5509412,26.2607353 16.5385588,26.5294118 15.5,26.5294118 C14.4614412,26.5294118 13.4490882,26.2607353 12.4910588,25.7308235 C11.5315294,25.2001176 10.6628529,24.4312353 9.90905882,23.4455294 C9.13294118,22.4306176 8.52147059,21.2420882 8.09158824,19.913 C7.6405,18.5183529 7.41176471,17.0336176 7.41176471,15.5 C7.41176471,13.9663824 7.6405,12.4816471 8.09158824,11.087 C8.21076471,10.7185588 8.34402941,10.3610294 8.49088235,10.015 C8.66905882,9.59514706 9.10858824,9.34908824 9.56008824,9.41355882 C10.6997059,9.57629412 12.7453529,10.2004706 15.5,12.382 C18.8375,15.0251176 22.3836765,14.2967941 23.4759706,13.6678824 C23.5502353,14.2688529 23.5882353,14.8803529 23.5882353,15.5 C23.5882353,17.0336176 23.3595,18.5183529 22.9084118,19.913 C22.7430588,20.4242941 22.5505294,20.9145588 22.3323824,21.3823529 M25.0588235,11.0882353 L24.4463235,11.0882353 C23.0826176,6.36176471 19.5915588,3 15.5,3 C11.4084412,3 7.91738235,6.36176471 6.55367647,11.0882353 L5.94117647,11.0882353 C4.31682353,11.0882353 3,12.4050588 3,14.0294118 L3,16.9705882 C3,18.5949706 4.31682353,19.9117647 5.94117647,19.9117647 L6.55367647,19.9117647 C7.91738235,24.6382353 11.4084412,28 15.5,28 C19.5915588,28 23.0826176,24.6382353 24.4463235,19.9117647 L25.0588235,19.9117647 C26.6832059,19.9117647 28,18.5949706 28,16.9705882 L28,14.0294118 C28,12.4050588 26.6832059,11.0882353 25.0588235,11.0882353" id="Fill-1" fill="#000000"></path>
    </g>
</svg>