<?xml version="1.0" encoding="UTF-8"?>
<svg width="54px" height="55px" viewBox="0 0 54 55" version="1.1" xmlns="http://www.w3.org/2000/svg" xmlns:xlink="http://www.w3.org/1999/xlink">
    <g id="Mobile" stroke="none" stroke-width="1" fill="none" fill-rule="evenodd">
        <g id="03.2.1_Terminaux---filter-//-Mobile" transform="translate(-253.000000, -117.000000)" fill-rule="nonzero">
            <g id="banner" transform="translate(65.000000, 50.000000)">
                <g id="Background-banner">
                    <g id="tile_faqs" transform="translate(175.000000, 61.000000)">
                        <g id="search" transform="translate(13.333333, 6.700000)">
                            <path d="M24.1333333,27.001 L19.6,31.557 L18.4666667,30.418 L0,48.977 L1.13333333,50.116 L3.46666667,52.461 L4.6,53.6 L23.0666667,35.041 L21.9333333,33.902 L26.4666667,29.346 C26.0666667,29.011 25.6666667,28.609 25.2666667,28.274 C24.8666667,27.872 24.4666667,27.47 24.1333333,27.001 Z" id="Shape" fill="#000000"></path>
                            <path d="M19.6,31.557 L18.4666667,30.418 L0,48.977 L1.13333333,50.116 L2.26666667,51.255 L25.2,28.207 C24.8,27.805 24.4666667,27.403 24.1333333,27.001 L19.6,31.557 Z" id="Shape" fill="#595959"></path>
                            <path d="M46.1333333,7.303 C51.2,12.395 51.2,20.703 46.1333333,25.862 C41.0666667,31.021 32.8,30.954 27.6666667,25.862 C22.6,20.77 22.6,12.462 27.6666667,7.303 L27.6666667,7.303 C32.7333333,2.144 41,2.144 46.1333333,7.303 L46.1333333,7.303 Z M48.5333333,4.824 C42.1333333,-1.608 31.6666667,-1.608 25.2666667,4.824 C18.8666667,11.256 18.8666667,21.775 25.2666667,28.207 C31.6666667,34.639 42.1333333,34.639 48.5333333,28.207 C48.5333333,28.207 48.5333333,28.207 48.5333333,28.207 L48.5333333,28.207 C54.9333333,21.775 54.9333333,11.323 48.5333333,4.824 L48.5333333,4.824 Z" id="Shape" fill="#FF7900"></path>
                            <path d="M46.1333333,7.303 C41.0666667,2.211 32.8,2.211 27.6666667,7.303 C22.5333333,12.395 22.6,20.703 27.6666667,25.862 C32.7333333,30.954 41,30.954 46.1333333,25.862 L46.1333333,25.862 C51.2,20.703 51.2,12.395 46.1333333,7.303 Z" id="Shape" fill="#B5E8F7"></path>
                            <ellipse id="Oval" fill="#FFFFFF" cx="36.8666667" cy="10.72" rx="4.06666667" ry="4.087"></ellipse>
                            <ellipse id="Oval" fill="#FFFFFF" cx="43.8" cy="9.581" rx="1.6" ry="1.608"></ellipse>
                        </g>
                    </g>
                </g>
            </g>
        </g>
    </g>
</svg>