<svg xmlns="http://www.w3.org/2000/svg" width="20" height="20" viewBox="0 0 20 20">
    <path fill-rule="evenodd" d="M17.301 13.579a3.723 3.723 0 0 1-3.723 3.723H6.42A3.723 3.723 0 0 1 2.7 13.58V6.422A3.723 3.723 0 0 1 6.42 2.7h7.157A3.723 3.723 0 0 1 17.3 6.423v7.156zM19 6.422A5.423 5.423 0 0 0 13.578 1H6.42A5.422 5.422 0 0 0 1 6.423v7.156A5.421 5.421 0 0 0 6.421 19h7.157A5.422 5.422 0 0 0 19 13.579V6.422zm-8.97 6.542a2.852 2.852 0 0 1-2.847-2.848A2.85 2.85 0 0 1 10.03 7.27a2.85 2.85 0 0 1 2.848 2.846 2.851 2.851 0 0 1-2.848 2.848zm0-7.293a4.45 4.45 0 0 0-4.444 4.445 4.45 4.45 0 0 0 4.444 4.446 4.45 4.45 0 0 0 4.445-4.446A4.45 4.45 0 0 0 10.03 5.67zm4.705-1.357a1.058 1.058 0 1 0 0 2.117 1.058 1.058 0 0 0 0-2.117z"/>
</svg>
