<svg xmlns="http://www.w3.org/2000/svg" width="50" height="50" viewBox="0 0 50 50">
    <path fill-rule="evenodd" d="M27.294 32.206h-9.176l-.568 2.014c-.502 1.833-1.315 2.75-2.439 2.75-.77 0-1.454-.182-2.054-.547-.6-.365-.952-.89-1.057-1.574 0-.723.073-1.28.218-1.67l6.442-17.194c.332-.893.855-1.614 1.568-2.162.714-.549 1.54-.823 2.478-.823.938 0 1.763.271 2.477.814.714.543 1.237 1.267 1.569 2.171l6.441 17.194c.146.407.219.964.219 1.67-.082.68-.425 1.202-1.027 1.57-.603.367-1.301.551-2.093.551-.52 0-.982-.22-1.39-.662a3.786 3.786 0 0 1-.865-1.527l-.743-2.575zm-1.652-4.764l-2.901-8.82-2.91 8.82h5.811zM38 16.745v1.498c0 .414-.342.75-.765.75h-2.294v2.247a.757.757 0 0 1-.765.749h-1.529a.757.757 0 0 1-.765-.75v-2.247h-2.294a.757.757 0 0 1-.764-.749v-1.498c0-.413.342-.749.764-.749h2.294V13.75c0-.414.343-.749.765-.749h1.53c.422 0 .764.335.764.75v2.246h2.294c.423 0 .765.336.765.75z"/>
</svg>
