<svg xmlns="http://www.w3.org/2000/svg" width="68" height="68" viewBox="0 0 68 68">
    <path fill-rule="evenodd" d="M45.737 21.137c0 5.074-4.116 9.187-9.193 9.187-5.078 0-9.194-4.113-9.194-9.187 0-5.074 4.116-9.187 9.194-9.187 5.077 0 9.193 4.113 9.193 9.187zm-1.17 8.514a11.751 11.751 0 01-16.108 0c-3.5 1.91-5.91 5.546-6.002 9.789v.612h-2.652c-1.538.002-2.807 1.155-2.805 2.692v4.193c.002 1.536 1.267 2.756 2.805 2.754h2.652v.51c0 2.819 2.28 5.151 5.1 5.151h23.001V39.735a11.48 11.48 0 00-5.991-10.084zm-11.305 16.34l-6.47 6.454v-4.131h-6.987c-.74 0-1.427-.688-1.428-1.428v-4.233c0-.74.688-1.325 1.428-1.326h6.987v-4.182l6.473 6.412c.306.319.472.746.463 1.187 0 .472-.163.93-.466 1.247z"/>
</svg>
