<svg xmlns="http://www.w3.org/2000/svg" width="50" height="50" viewBox="0 0 50 50">
    <path fill-rule="evenodd" d="M27.923 24.506a.93.93 0 0 0 1.232-.408 4.42 4.42 0 0 0 .479-2.012c0-2.51-2.093-4.552-4.665-4.552-2.573 0-4.665 2.042-4.665 4.552 0 .53.094 1.057.28 1.555l-.006.002c.34.754.339 1.612-.002 2.365l.004.001c-.53 1.265.08 2.71 1.37 3.242 1.29.533 2.778-.047 3.338-1.299s-.016-2.71-1.293-3.272a.934.934 0 0 0-.047-.02l-.014-.007h-.003c-1.325-.511-2.054-1.904-1.7-3.25.353-1.347 1.677-2.226 3.09-2.053 1.414.174 2.474 1.347 2.474 2.736.001.423-.098.84-.29 1.218a.877.877 0 0 0-.046.686.905.905 0 0 0 .464.516zm2.664-8.133c-1.893-1.847-4.59-2.676-7.226-2.221-2.636.455-4.879 2.136-6.008 4.504a.888.888 0 0 0 .447 1.189.93.93 0 0 0 1.22-.431c1.044-2.19 3.294-3.59 5.77-3.59 3.506 0 6.36 2.784 6.36 6.207a6.073 6.073 0 0 1-.99 3.326l-7.137 9.03-.011.016a2.406 2.406 0 0 1-2.618.658 2.313 2.313 0 0 1-1.543-2.165v-1.74a.909.909 0 0 0-.92-.898.909.909 0 0 0-.92.897v1.74c0 2.264 1.887 4.105 4.207 4.105a4.233 4.233 0 0 0 3.259-1.51c.02-.024.04-.05.058-.076l7.107-8.994.005-.007a.904.904 0 0 0 .034-.047l.006-.008.006-.01.003-.005c2.075-3.165 1.613-7.313-1.109-9.97z"/>
</svg>
