<svg xmlns="http://www.w3.org/2000/svg" width="32" height="32" viewBox="0 0 32 32">
    <path fill-rule="evenodd" d="M23.8 7.2H6.4v12.6a1.8 1.8 0 0 0 1.8 1.8h2.4v4.2l4.2-4.2h10.8V9a1.8 1.8 0 0 0-1.8-1.8zm-4.488 5.04a1.8 1.8 0 1 1-3.6 0 1.8 1.8 0 0 1 3.6 0zm-4.8-3.48a1.8 1.8 0 0 1 1.76 1.425 2.399 2.399 0 0 0-1.16 2.055v.017a1.8 1.8 0 1 1-.6-3.497zm-.311 8.64H14.2v1.32h-1.248v-.001A1.2 1.2 0 0 1 11.8 17.52v-1.848a2.714 2.714 0 0 1 3.457-2.608c.187.508.54.939 1 1.222a3.313 3.313 0 0 0-2.057 3.066v.048zm6.023 0v3h-4.272v-.001A1.2 1.2 0 0 1 14.8 19.2v-1.848a2.712 2.712 0 0 1 5.424 0v.048z"/>
</svg>
