<svg xmlns="http://www.w3.org/2000/svg" width="75" height="75" viewBox="0 0 75 75">
    <path fill-rule="evenodd" d="M49.893 39.844a10.025 10.025 0 0 0-7.57 3.442l-4.393-2.41a10.83 10.83 0 0 0 .148-5.843l3.918-1.895a10.02 10.02 0 1 0-1.877-3.876L36.2 31.158a10.749 10.749 0 0 0-8.558-4.234c-5.946 0-10.767 4.82-10.767 10.767 0 5.946 4.82 10.767 10.767 10.767 3.165.003 6.17-1.39 8.214-3.807l4.394 2.41a10.05 10.05 0 1 0 9.643-7.217zm0-18.662a2.707 2.707 0 1 1 0 5.414 2.707 2.707 0 0 1 0-5.414zm-4.306 7.383c0-.9.49-1.728 1.28-2.16a3.932 3.932 0 0 0 6.053 0 2.46 2.46 0 0 1 1.28 2.16v4.103a7.183 7.183 0 0 1-8.613 0v-4.103zM27.642 31.23a3.158 3.158 0 1 1 0 6.316 3.158 3.158 0 0 1 0-6.316zm5.024 12.551a7.898 7.898 0 0 1-10.049 0v-3.938a2.87 2.87 0 0 1 1.494-2.52 4.587 4.587 0 0 0 7.061 0 2.87 2.87 0 0 1 1.494 2.52v3.938zm17.227.37a2.707 2.707 0 1 1 0 5.413 2.707 2.707 0 0 1 0-5.414zM54.2 55.636a7.183 7.183 0 0 1-8.613 0v-4.103c0-.9.49-1.728 1.28-2.16a3.932 3.932 0 0 0 6.053 0 2.46 2.46 0 0 1 1.28 2.16v4.103z"/>
</svg>
