<svg xmlns="http://www.w3.org/2000/svg" width="75" height="75" viewBox="0 0 75 75">
    <path fill-rule="evenodd" d="M45.01 25.47c-.689-1.038-1.666-1.858-2.93-2.462-1.265-.604-2.724-.906-4.375-.906-1.778 0-3.333.361-4.666 1.084-1.333.722-2.347 1.633-3.042 2.733-.695 1.1-1.043 2.186-1.043 3.258 0 .52.22 1.001.658 1.447.439.446.977.669 1.615.669 1.082 0 1.818-.638 2.205-1.913.41-1.219.911-2.14 1.504-2.767.592-.626 1.515-.94 2.769-.94 1.07 0 1.945.311 2.623.931.677.62 1.017 1.383 1.017 2.285 0 .463-.112.892-.334 1.287a4.85 4.85 0 0 1-.82 1.074c-.325.322-.852.799-1.58 1.43-.832.723-1.493 1.346-1.983 1.871a6.23 6.23 0 0 0-1.18 1.828c-.296.694-.444 1.515-.444 2.463 0 .756.202 1.325.607 1.709.404.383.903.575 1.495.575 1.14 0 1.818-.586 2.034-1.76.125-.553.22-.94.282-1.16.063-.22.15-.44.265-.66.114-.22.288-.462.521-.727.234-.265.544-.573.931-.923 1.402-1.24 2.373-2.124 2.914-2.649a7.71 7.71 0 0 0 1.402-1.87c.393-.722.59-1.562.59-2.522a6 6 0 0 0-1.035-3.385m-9.535 21.475a2.706 2.706 0 0 0 1.82.669 2.61 2.61 0 0 0 1.777-.678c.512-.45.769-1.071.769-1.861 0-.711-.245-1.31-.735-1.794-.49-.485-1.094-.728-1.812-.728-.729 0-1.344.243-1.846.728a2.401 2.401 0 0 0-.751 1.794c0 .8.259 1.424.778 1.87m2.025 6.407l-8.603 8.523v-9.751c-9.217-2.736-15.772-9.74-15.772-17.948C13.125 23.586 24.038 15 37.5 15s24.375 8.585 24.375 19.176c0 10.59-10.913 19.176-24.375 19.176"/>
</svg>
