<svg xmlns="http://www.w3.org/2000/svg" width="40" height="40" viewBox="0 0 40 40">
    <path fill-rule="evenodd" d="M20.75 18.5H18.5v2.25a.75.75 0 0 1-.75.75H17a.75.75 0 0 1-.75-.75V18.5H14a.75.75 0 0 1-.75-.75V17a.75.75 0 0 1 .75-.75h2.25V14a.75.75 0 0 1 .75-.75h.75a.75.75 0 0 1 .75.75v2.25h2.25a.75.75 0 0 1 .75.75v.75a.75.75 0 0 1-.75.75M17.374 11a6.375 6.375 0 1 0 0 12.75 6.375 6.375 0 0 0 0-12.75M31.78 30.653l-1.128 1.128a.752.752 0 0 1-1.06 0l-6.773-6.773a9.375 9.375 0 1 1 2.188-2.188l6.773 6.773a.752.752 0 0 1 0 1.06"/>
</svg>
