<svg xmlns="http://www.w3.org/2000/svg" width="30" height="30" viewBox="0 0 30 30">
    <path fill="#000" fill-rule="evenodd" d="M23.802 9.877h-12.83v-.836a.837.837 0 0 0-.837-.837H8.46a.837.837 0 0 0-.837.837v.836H5.951v11.715c0 .616.5 1.116 1.116 1.116h17.85V10.993c0-.616-.499-1.116-1.115-1.116zm-12.83 2.79c0 .308-.25.557-.558.557H8.182a.558.558 0 0 1-.558-.557v-.558c0-.308.25-.558.558-.558h2.232c.308 0 .557.25.557.558v.558zm5.3 7.81a4.184 4.184 0 1 1-.001-8.368 4.184 4.184 0 0 1 0 8.368z"/>
</svg>
