<svg xmlns="http://www.w3.org/2000/svg" width="22" height="22" viewBox="0 0 22 22">
    <g fill="none" fill-rule="evenodd">
        <rect width="13.75" height="13.75" x="4.4" y="4.4" fill="#FFF" rx="6.875"/>
        <path fill="#527EDB" d="M13.297 15.724h-3.64v-.417l.086-.003c.252-.008.439-.08.556-.212.042-.048.112-.212.112-.763v-3.675c0-.524-.073-.722-.134-.795-.087-.103-.267-.164-.537-.18l-.083-.005v-.421h2.831v5.076c0 .525.137.722.198.795.087.104.254.164.528.18l.083.005v.415zm-2.022-9.706a1.213 1.213 0 1 1 0 2.426 1.213 1.213 0 0 1 0-2.426zm0-1.618a6.875 6.875 0 1 0 0 13.75 6.875 6.875 0 0 0 0-13.75z"/>
    </g>
</svg>
