<svg width="30" height="30" viewBox="0 0 30 30" xmlns="http://www.w3.org/2000/svg">
    <path d="M19.239 8.071a2.649 2.649 0 0 1 2.638 2.66v9.537c0 1.47-1.181 2.66-2.638 2.66H9.78a2.65 2.65 0 0 1-2.638-2.66v-9.536a2.65 2.65 0 0 1 2.638-2.66h9.458zm1.332 12.197v-9.536a1.34 1.34 0 0 0-1.332-1.344H9.78a1.34 1.34 0 0 0-1.332 1.344v9.536c0 .74.598 1.343 1.332 1.343h9.458a1.34 1.34 0 0 0 1.332-1.343zM9.78 23.732h9.458c.328 0 .644-.05.945-.137v4.047a1.23 1.23 0 0 1-1.225 1.235H10.06a1.23 1.23 0 0 1-1.224-1.235v-4.047c.3.087.617.137.944.137zm9.46-16.464H9.78c-.327 0-.644.05-.944.137V3.358a1.23 1.23 0 0 1 1.224-1.235h8.898a1.23 1.23 0 0 1 1.225 1.235v4.047a3.394 3.394 0 0 0-.945-.137zm3.363 3.87c.147 0 .265.119.265.267v2.099a.267.267 0 0 1-.265.267l-.01-.002v.002h-.45v-2.634h.45v.002l.01-.002zm-.46 8.725v-2.634h.49v1.121h-.244v.391h.245v1.122h-.49z" fill-rule="evenodd"/>
</svg>
