<svg xmlns="http://www.w3.org/2000/svg" width="25" height="25" viewBox="0 0 25 25">
    <path fill="inherit" fill-rule="evenodd" d="M20.329 10.674a7.812 7.812 0 0 1-7.516 9.951 7.807 7.807 0 0 1-6.664-3.733l-.018-.028-.035-.06A7.776 7.776 0 0 1 5 12.813 7.815 7.815 0 0 1 12.812 5h.042a7.816 7.816 0 0 1 7.475 5.674zm-1.542 2.138a5.974 5.974 0 1 0-11.949 0 5.974 5.974 0 0 0 11.949 0zm-10.11 1.38c-.288 0-.46-.173-.46-.46v-1.839c0-.287.172-.46.46-.46h8.272c.287 0 .46.173.46.46v1.839c0 .287-.173.46-.46.46H8.676z"/>
</svg>
