<svg xmlns="http://www.w3.org/2000/svg" width="22" height="22" viewBox="0 0 22 22">
    <path fill="#000" fill-rule="evenodd" d="M4.813 6.05h12.375V4.813a.412.412 0 0 0-.413-.413H5.225a.412.412 0 0 0-.412.412V6.05zm11.962 5.362c-.305 0-.598-.112-.825-.315-.47.42-1.18.42-1.65 0-.47.42-1.18.42-1.65 0-.47.42-1.18.42-1.65 0-.47.42-1.18.42-1.65 0-.47.42-1.18.42-1.65 0-.47.42-1.18.42-1.65 0a1.235 1.235 0 0 1-1.237.245V17.6h8.662v-4.95h2.475v4.95h1.238v-6.258a1.232 1.232 0 0 1-.413.07zm-4.537 4.538H6.05v-3.3h6.188v3.3zm4.95-9.487H4.813L4.4 10.175a.825.825 0 0 0 1.65 0 .825.825 0 0 0 1.65 0 .825.825 0 0 0 1.65 0 .825.825 0 0 0 1.65 0 .825.825 0 0 0 1.65 0 .825.825 0 0 0 1.65 0 .825.825 0 0 0 1.65 0 .825.825 0 0 0 1.65 0l-.413-3.713z"/>
</svg>
