<svg xmlns="http://www.w3.org/2000/svg" width="56" height="57" viewBox="0 0 56 57">
    <path fill-rule="evenodd" d="M28.178 26.974h-1.221l.405-1.146a.52.52 0 0 0-.334-.683v.002a.53.53 0 0 0-.672.318l-.538 1.51h-1.222l.406-1.147a.52.52 0 0 0-.335-.683v.002a.53.53 0 0 0-.672.318l-.537 1.51h-1.594a.534.534 0 0 0-.536.532c0 .294.24.532.536.532h1.207l-.404 1.107h-1.609a.534.534 0 0 0-.536.532c0 .294.24.533.536.533h1.221l-.42 1.148c-.1.275.019.576.32.676v.002c.257.1.586-.042.686-.318l.553-1.508h1.221l-.42 1.148c-.1.275.02.576.32.676v.002c.257.1.586-.042.687-.318l.552-1.508h1.593a.534.534 0 0 0 .537-.533.534.534 0 0 0-.537-.532h-1.206l.404-1.107h1.609a.534.534 0 0 0 .536-.532.534.534 0 0 0-.536-.533zm-3.151 2.172h-1.222l.404-1.107h1.222l-.404 1.107zm10.44-12.264h1.2l.429-1.064h-1.244l-.386 1.064zm5.274-6.387l-10.73-.015v4.259l-2.135 1.675 2.144 1.533v3.193c0 .754.412 1.065 1.072 1.065h10.721V11.559c0-.37-.491-1.064-1.072-1.064zm-.9 5.323h-1.587l-.429 1.064h1.287c.295 0 .553.227.553.52a.56.56 0 0 1-.553.545h-1.673l-.553 1.502c-.101.276-.395.378-.695.278-.257-.1-.415-.364-.314-.64l.404-1.14h-1.2l-.558 1.502c-.101.276-.392.378-.693.278-.257-.1-.417-.364-.316-.64l.408-1.14h-1.2c-.297 0-.565-.25-.565-.544v-.001c0-.294.268-.52.565-.52h1.586l.43-1.064-1.215-.015a.538.538 0 0 1-.537-.532c0-.294.254-.518.55-.518h1.587l.55-1.57a.537.537 0 0 1 .685-.316c.277.1.421.403.323.679l-.4 1.207h1.244l.513-1.57a.537.537 0 0 1 1.009.363l-.45 1.207 1.254-.014c.296 0 .537.196.537.49 0 .293-.251.589-.547.589zm-6.605 26.614H16.082V13.688h12.866v-3.193H16.082a2.137 2.137 0 0 0-2.144 2.129V44.56c0 1.176.96 2.13 2.144 2.13h17.154a2.137 2.137 0 0 0 2.145-2.13V23.27h-2.145v19.162zM23.051 11.559h3.22c.295 0 .535.239.535.533 0 .294-.24.532-.536.532h-3.219a.534.534 0 0 1-.536-.532c0-.294.24-.533.536-.533zm1.61 34.065a1.068 1.068 0 0 1-1.072-1.065c0-.587.48-1.064 1.073-1.064.592 0 1.072.477 1.072 1.065s-.48 1.065-1.073 1.064z"/>
</svg>
