<svg xmlns="http://www.w3.org/2000/svg" width="28" height="28" viewBox="0 0 28 28">
    <path fill="#000" fill-rule="evenodd" d="M22.06 9.952v9.313H5.94V20.3H23.1V9.952h-1.04zm-8.84.518a3.112 3.112 0 0 0-3.12 3.104 3.112 3.112 0 0 0 3.12 3.104c1.723 0 3.12-1.39 3.12-3.104 0-.823-.329-1.613-.914-2.195a3.128 3.128 0 0 0-2.206-.91zm-4.94 2.328c-.43 0-.78.347-.78.776 0 .429.35.776.78.776a.774.774 0 1 0 0-1.552zm9.88 0c-.43 0-.78.347-.78.776 0 .429.35.776.78.776a.774.774 0 1 0 0-1.552zM21.54 8.4H4.9v10.348h16.64V8.4zm-1.04 7.76c-.862 0-1.56.696-1.56 1.553H7.5c0-.412-.164-.806-.457-1.098a1.564 1.564 0 0 0-1.103-.454v-5.174c.414 0 .81-.164 1.103-.455.293-.29.457-.686.457-1.097h11.44c0 .857.698 1.552 1.56 1.552v5.174z"/>
</svg>
