<svg width="30" height="30" viewBox="0 0 30 30" xmlns="http://www.w3.org/2000/svg">
    <path d="M19.481 14.257a.822.822 0 0 0-.814-.828h-3.26v4.142h4.074v-3.314zm-9.777-.828h-3.26a.822.822 0 0 0-.814.828v3.314h4.074V13.43zm7.435 4.971h-1.732v1.416a6.645 6.645 0 0 0-.814 1.173v-7.56h-4.074V18.4h-4.89v4.143h8.354c-.068.27-.12.546-.155.828h-3.31v4.143h-.814v-4.143H5.63v3.315c0 .457.364.828.814.828h8.206a6.636 6.636 0 0 0 1.335 1.657H5.63c-.9 0-1.63-.742-1.63-1.657V2.657C4 1.742 4.73 1 5.63 1h9.777l5.704 5.8v10.823a6.404 6.404 0 0 0-3.972.777zm-2.446 9.114h-.1v-.103l.1.103zm9.06-5.658l-1.152-1.171-2.305 2.343-2.304-2.343-1.153 1.171 2.305 2.344-2.305 2.344 1.153 1.171 2.304-2.343 2.305 2.343 1.152-1.171L21.45 24.2l2.304-2.344zM20.296 30c-3.15 0-5.703-2.597-5.703-5.8s2.553-5.8 5.703-5.8c3.15 0 5.704 2.597 5.704 5.8S23.446 30 20.296 30z" fill-rule="evenodd"/>
</svg>
