<svg width="30" height="30" viewBox="0 0 30 30" xmlns="http://www.w3.org/2000/svg">
    <path d="M22.332 21.382H17.58a2.206 2.206 0 1 0 0 1.47h3.932c-.134.204-.275.402-.421.594-.754.985-1.623 1.754-2.582 2.285-.958.53-1.97.798-3.009.798s-2.05-.268-3.009-.798c-.96-.53-1.828-1.3-2.582-2.285-.776-1.015-1.388-2.204-1.817-3.533a14.316 14.316 0 0 1-.68-4.413c0-1.534.229-3.018.68-4.413.119-.368.252-.726.399-1.072.178-.42.618-.666 1.07-.601 1.139.162 3.184.786 5.939 2.968 3.337 2.643 6.884 1.915 7.976 1.286.074.6.112 1.212.112 1.832 0 1.534-.229 3.018-.68 4.413a12.779 12.779 0 0 1-.576 1.47m2.727-10.295h-.613C23.083 6.362 19.592 3 15.5 3s-7.583 3.362-8.946 8.088H5.94A2.941 2.941 0 0 0 3 14.03v2.942a2.941 2.941 0 0 0 2.941 2.94h.613C7.917 24.639 11.408 28 15.5 28s7.583-3.362 8.946-8.088h.613A2.941 2.941 0 0 0 28 16.97v-2.942a2.941 2.941 0 0 0-2.941-2.94" fill-rule="evenodd"/>
</svg>
