<svg width="30" height="30" viewBox="0 0 30 30" xmlns="http://www.w3.org/2000/svg">
    <path d="M19.989 15.094l-.506 4.033h4.401l1.742-4.033H19.99zm-2.252-6.932a2.71 2.71 0 0 0-.79-1.934 2.711 2.711 0 0 0-3.86 0 2.712 2.712 0 0 0-.793 1.934l.004 3.706h5.437l.002-3.706zM4.218 15.094l1.898 4.033h4.354l-.62-4.033H4.219zM9.046 25.58h2.414l-.62-4.033H7.116l1.931 4.033zm3.862-6.453h4.345l.483-4.033h-5.472l.644 4.033zm.805 6.453h2.574l.644-4.033h-3.862l.644 4.033zm7.241 0l1.931-4.033h-3.701l-.654 4.033h2.424zm7.77-11.27L22.402 28H7.437L1.229 14.31a1.611 1.611 0 0 1 1.38-2.443h7.274V8.163c0-2.839 2.3-5.162 5.133-5.162 2.832 0 5.133 2.323 5.133 5.162v3.706h7.195c.888 0 1.656.722 1.656 1.613 0 .303-.131.587-.276.83z" fill-rule="evenodd"/>
</svg>
