<svg xmlns="http://www.w3.org/2000/svg" width="45" height="45" viewBox="0 0 45 45">
    <path fill="#000" fill-rule="evenodd" d="M27.145 14.897c0-.742.357-1.4.907-1.814v1.814a1.36 1.36 0 0 0 2.722 0v-1.796a2.23 2.23 0 0 1 .907 1.796 2.268 2.268 0 1 1-4.536 0zm-12.701 0c0-.742.356-1.4.907-1.814v1.814a1.36 1.36 0 0 0 2.722 0v-1.814a2.268 2.268 0 1 1-3.63 1.814zM35.31 35.31H12.175a1.36 1.36 0 0 1-1.36-1.36V19.887H33.95c.751 0 1.36.61 1.36 1.361V35.31zm-.907-23.588h-3.629v-1.38c0-.75-.61-1.342-1.36-1.342-.752 0-1.362.61-1.362 1.36v1.362h-9.979V10.36a1.36 1.36 0 0 0-2.722 0v1.36H9v22.682a2.722 2.722 0 0 0 2.722 2.722h25.403V14.444a2.722 2.722 0 0 0-2.722-2.722z"/>
</svg>
