<svg width="30" height="30" viewBox="0 0 30 30" xmlns="http://www.w3.org/2000/svg">
    <path d="M19.176 23.588H12.56v-.757l.155-.005c.458-.014.798-.144 1.011-.386.076-.087.205-.385.205-1.387v-6.682c0-.953-.133-1.312-.245-1.445-.157-.188-.485-.299-.975-.329l-.151-.009v-.764h5.147v9.23c0 .953.249 1.311.36 1.445.157.187.461.298.96.328l.15.008v.753zM15.5 5.941a2.206 2.206 0 1 1 0 4.412 2.206 2.206 0 0 1 0-4.412zM15.5 3C8.596 3 3 8.596 3 15.5S8.596 28 15.5 28 28 22.404 28 15.5 22.404 3 15.5 3z" fill-rule="evenodd"/>
</svg>
