<svg xmlns="http://www.w3.org/2000/svg" width="30" height="30" viewBox="0 0 30 30">
    <path fill="#000" fill-rule="evenodd" d="M6 7.113v7.795l9.003 9.003a2.227 2.227 0 0 0 3.149 0l5.758-5.759c.87-.87.87-2.28 0-3.149L14.907 6H7.113A1.113 1.113 0 0 0 6 7.113zm11.523 3.517l.39 1.457 1.457.39-.39 1.457L20.045 15l-1.067 1.067.39 1.456-1.456.39-.39 1.457-1.457-.39L15 20.046l-1.066-1.066-1.457.39-.39-1.456-1.457-.39.39-1.457L9.954 15l1.066-1.066-.39-1.457 1.457-.39.39-1.457 1.457.39L15 9.955l1.066 1.067 1.457-.39zm-7.701-1.9a1.092 1.092 0 1 1-2.184 0 1.092 1.092 0 0 1 2.184 0z"/>
</svg>
