<svg xmlns="http://www.w3.org/2000/svg" width="45" height="45" viewBox="0 0 45 45">
    <path fill="#000" fill-rule="evenodd" d="M13.318 29.66h-2.051c-.85 0-1.54-.688-1.54-1.535s.69-1.534 1.54-1.534h2.051c.85 0 1.539.687 1.539 1.534s-.69 1.534-1.539 1.534zm7.18 0h-2.051c-.85 0-1.539-.688-1.539-1.535s.689-1.534 1.539-1.534h2.051c.85 0 1.539.687 1.539 1.534s-.69 1.534-1.539 1.534zm7.18 0h-2.051c-.85 0-1.539-.688-1.539-1.535s.69-1.534 1.539-1.534h2.051c.85 0 1.539.687 1.539 1.534s-.689 1.534-1.539 1.534zm10.77-8.183H7.677v9.205c0 .565.46 1.023 1.026 1.023h28.72c.567 0 1.027-.458 1.027-1.023v-9.205zm0-7.159c0-.565-.459-1.023-1.025-1.023H8.703c-.567 0-1.027.458-1.027 1.023v3.068H38.45v-3.068zM37.424 33.75H8.703a3.073 3.073 0 0 1-3.078-3.068V14.318a3.073 3.073 0 0 1 3.077-3.068h28.72c1.7 0 3.078 1.374 3.078 3.068v16.364a3.073 3.073 0 0 1-3.077 3.068z"/>
</svg>
