<svg xmlns="http://www.w3.org/2000/svg" width="40" height="40" viewBox="0 0 40 40">
    <path fill="#FFF" fill-rule="evenodd" d="M11.838 26.364h-1.823c-.756 0-1.368-.61-1.368-1.364 0-.753.612-1.364 1.368-1.364h1.823c.756 0 1.368.61 1.368 1.364 0 .753-.612 1.364-1.368 1.364zm6.383 0h-1.824c-.755 0-1.368-.61-1.368-1.364 0-.753.613-1.364 1.368-1.364h1.824a1.365 1.365 0 1 1 0 2.728zm6.382 0h-1.824a1.365 1.365 0 1 1 0-2.728h1.824c.755 0 1.368.61 1.368 1.364 0 .753-.613 1.364-1.368 1.364zm9.573-7.273H6.824v8.182a.91.91 0 0 0 .911.909h25.53a.91.91 0 0 0 .911-.91v-8.181zm0-6.364a.91.91 0 0 0-.911-.909H7.735a.91.91 0 0 0-.911.91v2.727h27.352v-2.728zM33.265 30H7.735A2.731 2.731 0 0 1 5 27.273V12.727A2.731 2.731 0 0 1 7.735 10h25.53A2.731 2.731 0 0 1 36 12.727v14.546A2.731 2.731 0 0 1 33.265 30z"/>
</svg>
