<svg xmlns="http://www.w3.org/2000/svg" width="30" height="31" viewBox="0 0 30 31">
    <path fill-rule="evenodd" d="M22.332 11.671l-.971.971c1.059.709 1.962 1.554 2.555 2.385-.67.936-1.742 1.892-2.991 2.65-.436.266-.89.504-1.355.713a5.407 5.407 0 00.95-4.906l-1.146 1.145a4.05 4.05 0 01-4.43 4.43l-1.455 1.455a9.661 9.661 0 001.592.136c.09 0 .18.003.271.003.091 0 .182-.003.272-.003 4.221 0 8.492-2.975 9.876-5.622-.6-1.147-1.733-2.356-3.168-3.357zM6.834 15.028c.67-.935 1.742-1.891 2.991-2.65.406-.247.826-.47 1.258-.669a5.408 5.408 0 00-.862 5.03l1.116-1.117a4.052 4.052 0 014.601-4.6l1.457-1.457a9.724 9.724 0 00-1.726-.16l-.272-.002-.271.003c-4.221 0-8.492 2.974-9.876 5.622.612 1.171 1.782 2.407 3.261 3.42l.973-.972c-1.1-.721-2.04-1.592-2.65-2.448zm15.813-8.185l-7.172 7.172-2.262 2.263-6.09 6.09 1.193 1.193 6.204-6.204 3.153-3.153 6.168-6.167-1.194-1.194z"/>
</svg>
