<svg width="30" height="30" viewBox="0 0 30 30" xmlns="http://www.w3.org/2000/svg">
    <path d="M15.5 28C8.596 28 3 22.404 3 15.5v-.735c0-.406.33-.736.735-.736h1.47c.407 0 .736.33.736.736v.735a9.531 9.531 0 0 0 2.8 6.76 9.531 9.531 0 0 0 6.759 2.799 9.531 9.531 0 0 0 6.76-2.8 9.531 9.531 0 0 0 2.799-6.759 9.531 9.531 0 0 0-2.8-6.76A9.531 9.531 0 0 0 15.5 5.942a9.531 9.531 0 0 0-6.76 2.8c-.371.372-.71.77-1.012 1.193l2.625 2.625H4.634v-.01a1.47 1.47 0 0 1-1.625-1.625H3V5.207l2.627 2.627A12.479 12.479 0 0 1 15.5 3C22.404 3 28 8.596 28 15.5S22.404 28 15.5 28m1.47-18.382v5.193l3 2.5a1.47 1.47 0 0 1-1.882 2.26l-3.523-2.936-.006-.005-.018-.015-.034-.03-.028-.027-.023-.023a1.447 1.447 0 0 1-.033-.034l-.015-.016a1.484 1.484 0 0 1-.035-.04l-.011-.014a1.495 1.495 0 0 1-.034-.043l-.01-.013a1.47 1.47 0 0 1-.032-.044l-.009-.014a1.402 1.402 0 0 1-.165-.33 1.503 1.503 0 0 1-.022-.07l-.005-.016a1.468 1.468 0 0 1-.014-.054l-.003-.015a1.503 1.503 0 0 1-.012-.054l-.003-.017a1.451 1.451 0 0 1-.009-.052l-.002-.023a1.462 1.462 0 0 1-.006-.047l-.002-.032-.003-.038-.001-.047V9.618a1.47 1.47 0 0 1 2.94 0" fill-rule="evenodd"/>
</svg>
