<svg xmlns="http://www.w3.org/2000/svg" width="75" height="75" viewBox="0 0 75 75">
    <path fill-rule="evenodd" d="M36.873 46.103l-.385-3.054-2.738-.764 7.614-3.351-4.491 7.17zm10.723-19.689v2.483c0 .792-.646 1.434-1.442 1.434a1.438 1.438 0 0 1-1.442-1.434v-2.483a2.863 2.863 0 0 0-1.443 2.483 2.876 2.876 0 0 0 2.885 2.868 2.876 2.876 0 0 0 2.884-2.868c0-1.061-.58-1.987-1.442-2.483zm-5.005-8.313a7.18 7.18 0 0 0-5.091-2.108 7.18 7.18 0 0 0-5.09 2.108 7.095 7.095 0 0 0-2.122 5.06h14.424a7.095 7.095 0 0 0-2.121-5.06zm-13.745 12.23a1.438 1.438 0 0 1-1.442-1.434v-2.483a2.863 2.863 0 0 0-1.442 2.483 2.876 2.876 0 0 0 2.884 2.868 2.876 2.876 0 0 0 2.885-2.868c0-1.061-.58-1.987-1.443-2.483v2.483c0 .792-.645 1.434-1.442 1.434zm2.693 15.29l5.958 10.518h.003l5.938-10.518c.723-1.336 1.274-2.33 1.274-3.82 0-3.938-3.264-7.169-7.212-7.169-4.02 0-7.212 3.23-7.212 7.17 0 1.49.529 2.483 1.251 3.82zm20.384 16.254H23.077c-2.39 0-4.327-1.926-4.327-4.301V23.162h8.654c0-5.52 4.543-10.037 10.096-10.037s10.096 4.517 10.096 10.037h8.654v34.412c0 2.375-1.937 4.301-4.327 4.301z"/>
</svg>
