<svg xmlns="http://www.w3.org/2000/svg" width="40" height="40" viewBox="0 0 40 40">
    <g fill="none" fill-rule="evenodd">
        <rect width="25" height="25" x="8" y="8" fill="#FFF" rx="12.5"/>
        <path fill="#527EDB" d="M24.176 28.588H17.56v-.757l.155-.005c.458-.014.798-.144 1.011-.386.076-.087.205-.385.205-1.387v-6.682c0-.953-.133-1.312-.245-1.445-.157-.188-.485-.299-.975-.329l-.151-.009v-.764h5.147v9.23c0 .953.249 1.311.36 1.445.157.187.461.298.96.328l.15.008v.753zM20.5 10.941a2.206 2.206 0 1 1 0 4.412 2.206 2.206 0 0 1 0-4.412zM20.5 8C13.596 8 8 13.596 8 20.5S13.596 33 20.5 33 33 27.404 33 20.5 27.404 8 20.5 8z"/>
    </g>
</svg>
