<svg xmlns="http://www.w3.org/2000/svg" width="40" height="40" viewBox="0 0 40 40">
    <path fill-rule="evenodd" d="M13.309 14.374H28.57v6.613h-.016v6.937c0 .53-.435.96-.97.96h-2.076v4.268c0 .944-.773 1.708-1.728 1.708a1.718 1.718 0 0 1-1.728-1.708v-4.268H18.84v4.268c0 .944-.774 1.708-1.728 1.708a1.718 1.718 0 0 1-1.728-1.708v-4.268h-2.075a.966.966 0 0 1-.972-.96v-6.937h-.015v-6.613h.987zm17.856-.547c.954 0 1.728.765 1.728 1.709v7.678c0 .944-.774 1.709-1.728 1.709a1.718 1.718 0 0 1-1.728-1.709v-7.678c0-.944.773-1.709 1.728-1.709zm-21.437 0c.955 0 1.728.765 1.728 1.709v7.678c0 .944-.773 1.709-1.728 1.709A1.718 1.718 0 0 1 8 23.214v-7.678c0-.944.774-1.709 1.728-1.709zm14.255-2.91c.535 0 .97-.43.97-.96a.965.965 0 0 0-.97-.959c-.536 0-.97.43-.97.96 0 .529.434.958.97.958zm-7.073 0c.536 0 .97-.43.97-.96a.965.965 0 0 0-.97-.959c-.536 0-.97.43-.97.96 0 .529.434.958.97.958zm7.454-3.51c3.975 1.764 4.14 6.02 4.14 6.02H12.39s.117-4.294 4.122-6.044l-1.374-1.917c-.029-.04.013-.118.093-.174.08-.056.167-.069.196-.029l1.42 1.981c.973-.37 2.156-.596 3.6-.592 1.435.005 2.613.238 3.583.614l1.435-2.003c.03-.04.117-.027.197.029s.121.134.092.174l-1.39 1.94z"/>
</svg>
