<svg width="30" height="30" viewBox="0 0 30 30" xmlns="http://www.w3.org/2000/svg">
    <g fill="none" fill-rule="evenodd">
        <path d="M5.778 29C3.144 29 1 26.813 1 24.125c0-.854.22-1.695.638-2.433l9.72-17.248C12.21 2.937 13.798 2 15.5 2c1.704 0 3.29.937 4.14 2.444l9.724 17.25A4.96 4.96 0 0 1 30 24.125C30 26.813 27.857 29 25.222 29H5.778z" fill="#FFF"/>
        <path fill="#000" d="M13 9h5v16h-5z"/>
        <path d="M15.53 21.02c-.777 0-1.406.652-1.406 1.457 0 .804.63 1.456 1.406 1.456.776 0 1.405-.652 1.405-1.456 0-.805-.63-1.457-1.405-1.457m0-11.653c-.777 0-1.406.652-1.406 1.456 0 .03.001.06.003.088l.466 7.934c0 .536.42.738.937.738.517 0 .936-.202.937-.738l.464-7.915c.002-.036.004-.07.004-.107 0-.804-.63-1.456-1.405-1.456M28 24.125C28 25.713 26.756 27 25.222 27H5.778C4.244 27 3 25.713 3 24.125c0-.528.138-1.023.379-1.448l.022-.041.001-.002 9.699-17.208C13.583 4.574 14.476 4 15.5 4s1.917.573 2.4 1.427l9.722 17.25c.24.425.378.92.378 1.448" fill="#FFD600"/>
    </g>
</svg>
