<svg xmlns="http://www.w3.org/2000/svg" width="31" height="30" viewBox="0 0 31 30">
    <path fill="#000" fill-rule="evenodd" d="M23.802 10.529c-.092.479-.297.866-.526 1.296l-.014.026-.007.014-.008.014-1.895 3.156c.27.503.151 1.13-.284 1.495a1.166 1.166 0 0 1-1.5.001 1.207 1.207 0 0 1-.287-1.493l-1.902-3.159-.008-.013-.008-.015c-.25-.47-.487-.917-.56-1.503H8.297v6.576l.825.837-.825.837v3.109c0 .99.791 1.793 1.768 1.793h14.732V12.141c0-.686-.386-1.312-.994-1.612zM9.971 16.94l-.833-.845.833-.845.833.845-.833.845zm.783-2.502l.833-.845.833.845-.833.846-.833-.846zm1.666 1.691l.834-.845.833.845-.833.846-.834-.846zm1.667 1.691l.833-.845.834.845-.834.845-.833-.845zm2.433 2.45l-.834-.845.834-.845.833.845-.833.846zm1.666-1.69l-.833-.846.833-.845.834.845-.834.846zM20.317 7c-.78-.002-1.53.31-2.082.87a3.002 3.002 0 0 0-.864 2.11c0 .62.216 1.032.51 1.588l2.435 4.04h.001l2.427-4.04c.295-.556.52-.97.52-1.588 0-1.637-1.333-2.98-2.947-2.98zm0 4.065c-.585 0-1.06-.482-1.06-1.076 0-.594.475-1.076 1.06-1.076.586 0 1.061.482 1.061 1.076 0 .594-.475 1.076-1.06 1.076z"/>
</svg>
