<svg width="30" height="30" viewBox="0 0 30 30" xmlns="http://www.w3.org/2000/svg">
    <path d="M27.5 14.36h-2.25l-4.478-7.562A1.582 1.582 0 0 0 19.4 6H2c0 1.26 1.007 2.28 2.25 2.28h8.25c.414 0 .75.34.75.76s-.336.76-.75.76H2.75c0 1.26 1.007 2.28 2.25 2.28h7.5c.414 0 .75.34.75.76s-.336.76-.75.76h-9c0 1.26 1.007 2.28 2.25 2.28h6.75c.414 0 .75.34.75.76s-.336.76-.75.76h-6v4.256h.001C6.541 23.51 8.036 25 9.875 25c1.839 0 3.334-1.49 3.374-3.344h6.002C19.29 23.51 20.786 25 22.625 25c1.839 0 3.334-1.49 3.374-3.344H29V15.88c0-.84-.672-1.52-1.5-1.52" fill-rule="evenodd"/>
</svg>
