<svg xmlns="http://www.w3.org/2000/svg" width="25" height="25" viewBox="0 0 25 25">
    <path fill="inherit" fill-rule="evenodd" d="M16.949 11.434H14.19V8.676c0-.287-.172-.46-.46-.46h-1.838c-.287 0-.46.173-.46.46v2.758H8.677c-.287 0-.46.172-.46.46v1.838c0 .287.173.46.46.46h2.758v2.757c0 .287.172.46.46.46h1.838c.287 0 .46-.173.46-.46V14.19h2.757c.287 0 .46-.172.46-.46v-1.838c0-.287-.173-.46-.46-.46zM12.812 5a7.813 7.813 0 1 0 0 15.625 7.813 7.813 0 0 0 0-15.625zm5.975 7.813a5.974 5.974 0 1 1-11.949 0 5.974 5.974 0 0 1 11.949 0z"/>
</svg>
