<svg xmlns="http://www.w3.org/2000/svg" width="68" height="68" viewBox="0 0 68 68">
    <path fill-rule="evenodd" d="M31.26 44.055c-1.578 0-2.857-1.263-2.857-2.82v-6.011l-9.926 9.8c-.558.55-1.29.825-2.02.825-.731 0-1.462-.275-2.02-.826-1.116-1.101-1.116-2.887 0-3.988l9.926-9.8h-6.088c-1.578 0-2.857-1.262-2.857-2.82 0-1.558 1.279-2.82 2.857-2.82h12.984c1.578 0 2.857 1.262 2.857 2.82v12.82c0 1.557-1.279 2.82-2.857 2.82m25.653-15.44l-9.926 9.8h6.088c1.578 0 2.857 1.262 2.857 2.82 0 1.557-1.28 2.82-2.857 2.82H40.089c-1.578 0-2.857-1.263-2.857-2.82v-12.82c0-1.558 1.28-2.82 2.857-2.82 1.578 0 2.857 1.262 2.857 2.82v6.01l9.926-9.799c1.115-1.101 2.924-1.101 4.04 0 1.115 1.101 1.115 2.887 0 3.988"/>
</svg>
