<svg xmlns="http://www.w3.org/2000/svg" viewBox="0 0 30 30">
    <path d="M23 26.5h-1.5V5.8H23v20.7zm-2.9-4.2c-.2-.1-.5-.2-.7-.3V3.7c.4.3.7.8.7 1.3v17.3zm0 2.6c0 .3-.1.6-.3.9-.1.2-.3.3-.5.5-.2.1-.5.2-.8.2H9.7v-1.1c0-.6.1-1.2.4-1.7.5-1.2 1.3-2.1 2.4-2.8.6.6 1.3 1 2 1.2 1.1.4 2.3.3 3.3-.1v.7c0 .4.3.8.7.8h.4c.1 0 .1.1.2.1l.1.1v.3l.9.9zm-2.3-11.8v7.6c-.6.3-1.2.4-1.8.4-2.3 0-4.1-1.9-4.1-4.2 0-2.3 1.8-4.2 4.1-4.2.7 0 1.3.2 1.8.4zm-6.6-3.5h6.7v1.5h-6.6c-.4 0-.7-.3-.7-.7-.2-.4.2-.8.6-.8zm0-2.2h2.9c.4 0 .7.3.7.7.1.5-.3.9-.7.9h-2.9c-.4 0-.7-.3-.7-.7-.1-.5.3-.9.7-.9zm12.6-3.1h-2.3C21.1 3 20 2 18.6 2c-.4 0-.7.3-.7.8v1.5H8.2c-.4 0-.7.3-.7.8v22.2c0 .4.3.8.7.8h15.5c.4 0 .7-.3.7-.8V5.1c.1-.5-.2-.8-.6-.8z"/>
</svg>
