<svg width="30" height="30" viewBox="0 0 30 30" xmlns="http://www.w3.org/2000/svg">
    <path d="M21 14.35v11.376h-1.146c-.233 0-.462.055-.67.16l-3.55 1.793c-.417.21-.876.32-1.342.32H8.25A2.261 2.261 0 0 1 6 25.727c0-.585.22-1.12.58-1.522a2.263 2.263 0 0 1-2.08-2.266c0-.654.274-1.243.713-1.658a2.273 2.273 0 0 1-1.463-2.13c0-.654.274-1.243.713-1.658A2.273 2.273 0 0 1 3 14.363a2.261 2.261 0 0 1 2.25-2.272h6s-.75-4.263-.75-4.924c0-3.41 1.96-4.123 2.49-4.162A1.92 1.92 0 0 1 13.125 3C14.161 3 15 3.848 15 4.894v2.651l2.25 4.546A4.896 4.896 0 0 0 21 14.349m4.5 9.484a1.13 1.13 0 0 0-1.125-1.136 1.13 1.13 0 0 0-1.125 1.136 1.13 1.13 0 0 0 1.125 1.137 1.13 1.13 0 0 0 1.125-1.137m1.5-8.712v9.849c0 .836-.672 1.515-1.5 1.515h-2.25c-.828 0-1.5-.679-1.5-1.515v-9.85c0-.837.672-1.515 1.5-1.515h2.25c.828 0 1.5.678 1.5 1.515" fill-rule="evenodd"/>
</svg>
