<svg width="54" height="55" viewBox="0 0 54 55" xmlns="http://www.w3.org/2000/svg">
    <g transform="translate(.333 .7)" fill="none">
        <path d="M24.133 27.001L19.6 31.557l-1.133-1.139L0 48.977l1.133 1.139 2.334 2.345L4.6 53.6l18.467-18.559-1.134-1.139 4.534-4.556c-.4-.335-.8-.737-1.2-1.072-.4-.402-.8-.804-1.134-1.273z" fill="#000"/>
        <path d="M19.6 31.557l-1.133-1.139L0 48.977l1.133 1.139 1.134 1.139L25.2 28.207c-.4-.402-.733-.804-1.067-1.206L19.6 31.557z" fill="#595959"/>
        <path d="M46.133 7.303c5.067 5.092 5.067 13.4 0 18.559-5.066 5.159-13.333 5.092-18.466 0-5.067-5.092-5.067-13.4 0-18.559 5.066-5.159 13.333-5.159 18.466 0zm2.4-2.479c-6.4-6.432-16.866-6.432-23.266 0-6.4 6.432-6.4 16.951 0 23.383 6.4 6.432 16.866 6.432 23.266 0 6.4-6.432 6.4-16.884 0-23.383z" fill="#FF7900"/>
        <path d="M46.133 7.303c-5.066-5.092-13.333-5.092-18.466 0-5.134 5.092-5.067 13.4 0 18.559 5.066 5.092 13.333 5.092 18.466 0 5.067-5.159 5.067-13.467 0-18.559z" fill="#B5E8F7"/>
        <ellipse fill="#FFF" cx="36.867" cy="10.72" rx="4.067" ry="4.087"/>
        <ellipse fill="#FFF" cx="43.8" cy="9.581" rx="1.6" ry="1.608"/>
    </g>
</svg>
