<?xml version="1.0" encoding="utf-8"?>
<!-- Generator: Adobe Illustrator 16.0.0, SVG Export Plug-In . SVG Version: 6.00 Build 0)  -->
<!DOCTYPE svg PUBLIC "-//W3C//DTD SVG 1.1//EN" "http://www.w3.org/Graphics/SVG/1.1/DTD/svg11.dtd">
<svg version="1.1" id="Calque_1" xmlns="http://www.w3.org/2000/svg" xmlns:xlink="http://www.w3.org/1999/xlink" x="0px" y="0px"
	 width="140px" height="60px" viewBox="0 0 140 60" enable-background="new 0 0 140 60" xml:space="preserve">
<g>
	<defs>
		<rect id="SVGID_1_" x="2.5" y="18.261" width="135" height="23.479"/>
	</defs>
	<clipPath id="SVGID_2_">
		<use xlink:href="#SVGID_1_"  overflow="visible"/>
	</clipPath>
	<path clip-path="url(#SVGID_2_)" d="M68.02,32.939c-0.129,0.286-0.799,1.577-2.477,1.577c-1.943,0-2.701-1.611-2.701-2.81
		c0-1.98,1.333-3.759,3.297-3.759c2.113,0,2.616,1.574,2.665,1.859h3.107c0.187-1.162-0.735-4.715-5.653-4.715
		c-3.598,0-6.477,2.873-6.477,6.713c0,3.143,1.964,5.566,5.604,5.566c4.536,0,5.761-3.559,5.911-4.432H68.02z"/>
	<path clip-path="url(#SVGID_2_)" d="M44.168,33.805c0-0.182,0.047-0.525,0.207-1.246c0.154-0.724,2.352-10.839,2.352-10.839h-2.918
		l-2.42,11.159c-0.102,0.469-0.146,0.932-0.146,1.34c0,2.447,1.894,3.167,3.408,3.167c0.542,0,1.046-0.09,1.171-0.106
		c0.049-0.245,0.506-2.346,0.528-2.438c-0.065,0.005-0.388,0.028-0.76,0.028C44.506,34.87,44.168,34.41,44.168,33.805"/>
	<polygon clip-path="url(#SVGID_2_)" points="85.593,25.13 81.523,25.13 76.298,29.836 78.06,21.695 75.121,21.695 71.785,37.139 
		74.721,37.139 75.532,33.387 77.339,31.948 79.836,37.139 83.104,37.139 79.561,30.187 	"/>
	<path clip-path="url(#SVGID_2_)" d="M37.836,25.953c0-0.75-0.572-1.397-1.973-1.397H32.89l-0.675,3.118h3.099
		C36.982,27.674,37.836,26.868,37.836,25.953 M36.836,32.176c0-0.726-0.468-1.646-2.543-1.646h-2.695l-0.807,3.735h3.051
		C35.816,34.265,36.836,33.375,36.836,32.176 M28.134,32.366c0.244-1.107,2.313-10.665,2.313-10.665h5.558
		c4.032,0,5.024,2.241,5.024,3.601c0,3.009-2.841,3.806-3.189,3.915c0.324,0.106,2.169,0.837,2.169,3.2
		c0,2.57-2.37,4.724-6.044,4.724h-1.676C29.203,37.141,27.547,35.023,28.134,32.366"/>
	<path clip-path="url(#SVGID_2_)" d="M93.955,25.953c0-0.75-0.569-1.397-1.973-1.397H89.01l-0.674,3.118h3.1
		C93.104,27.674,93.955,26.868,93.955,25.953 M92.956,32.176c0-0.726-0.468-1.646-2.542-1.646h-2.696l-0.807,3.735h3.052
		C91.938,34.265,92.956,33.375,92.956,32.176 M84.254,32.366c0.245-1.107,2.313-10.665,2.313-10.665h5.56
		c4.033,0,5.026,2.241,5.026,3.601c0,3.009-2.842,3.806-3.19,3.915c0.319,0.106,2.169,0.837,2.169,3.2
		c0,2.57-2.374,4.724-6.048,4.724H88.41C85.324,37.141,83.666,35.023,84.254,32.366"/>
	<path clip-path="url(#SVGID_2_)" d="M117.32,25.137c-3.112,0-5.229,1.842-5.942,5.299c-0.307,1.486-1.436,6.709-1.436,6.709h2.915
		c0,0,1.074-4.967,1.414-6.527c0.444-2.046,1.527-2.741,2.98-2.741c0.471,0,0.771,0.053,0.924,0.075
		c0.079-0.412,0.486-2.258,0.583-2.711C118.443,25.2,117.945,25.137,117.32,25.137"/>
	<path clip-path="url(#SVGID_2_)" d="M127.24,41.74l9.783-16.603h-3.148l-4.495,7.813l-1.05-7.823h-3.369
		c-3.859,0-5.859,1.765-6.568,5.142c-0.355,1.686-1.485,6.876-1.485,6.876h2.916c0,0,1.069-4.931,1.495-6.92
		c0.412-1.932,1.846-2.522,3.391-2.192l0.614-2.835c0.455,2.692,1.847,11.292,1.847,11.292l-3.053,5.25H127.24z"/>
	<path clip-path="url(#SVGID_2_)" d="M51.496,28.896c0.072-0.119,0.823-1.275,2.691-1.275c1.162,0,1.758,0.424,1.758,0.937
		c0,0.724-1.172,0.913-3.2,1.203c-3.485,0.503-5.688,1.585-5.688,4.103c0,1.784,1.482,3.522,4.113,3.522
		c2.186,0,3.328-1.319,3.43-1.421c0.01,0.317,0.051,0.791,0.085,1.174h3.014c-0.104-0.521-0.319-1.521,0.038-3.12
		c0.189-0.842,0.722-3.263,0.992-4.599c0.516-2.527-0.871-4.313-4.425-4.313c-4.569,0-5.886,3.285-6.099,3.791H51.496z
		 M52.588,32.024c0.642-0.095,2.521-0.385,2.776-0.421c-0.048,0.2-0.124,0.521-0.179,0.757c-0.34,1.452-1.818,2.384-3.449,2.384
		c-1.041,0-1.649-0.56-1.649-1.225C50.087,32.97,50.592,32.319,52.588,32.024"/>
	<path clip-path="url(#SVGID_2_)" d="M103.926,27.759c1.963,0,2.713,1.198,2.633,2.159h-5.615
		C101.088,29.308,102.025,27.759,103.926,27.759 M105.654,33.542c-0.107,0.234-0.816,1.224-2.402,1.224
		c-2.282,0-2.803-1.936-2.749-2.466h8.893c0.051-0.218,0.251-1.009,0.251-1.822c0-2.813-1.906-5.386-5.752-5.386
		c-3.518,0-6.34,2.958-6.34,6.47c0,3.398,2.041,5.809,5.648,5.809c4.459,0,5.66-3.493,5.775-3.83H105.654z"/>
	<path clip-path="url(#SVGID_2_)" d="M9.686,19.938c0-0.74-0.454-1.677-2.359-1.677H4.393l-0.834,3.858h3.059
		C9.006,22.119,9.686,20.989,9.686,19.938"/>
	<path clip-path="url(#SVGID_2_)" d="M17.588,19.938c0-0.74-0.452-1.677-2.357-1.677h-2.934l-0.834,3.858h3.058
		C16.909,22.119,17.588,20.989,17.588,19.938"/>
	<path clip-path="url(#SVGID_2_)" d="M8.627,25.745c0-0.741-0.454-1.68-2.359-1.68H3.334L2.5,27.926h3.057
		C7.946,27.926,8.627,26.793,8.627,25.745"/>
	<path clip-path="url(#SVGID_2_)" d="M16.529,25.745c0-0.741-0.454-1.68-2.357-1.68h-2.934l-0.835,3.861h3.058
		C15.851,27.926,16.529,26.793,16.529,25.745"/>
	<path clip-path="url(#SVGID_2_)" d="M24.798,23.39c0-0.741-0.454-1.68-2.357-1.68h-2.934l-0.835,3.86h3.057
		C24.118,25.57,24.798,24.44,24.798,23.39"/>
	<path clip-path="url(#SVGID_2_)" d="M23.658,29.437c0-0.741-0.453-1.678-2.357-1.678h-2.934l-0.834,3.858h3.057
		C22.979,31.617,23.658,30.484,23.658,29.437"/>
	<path clip-path="url(#SVGID_2_)" d="M15.395,31.792c0-0.744-0.453-1.683-2.356-1.683h-2.936L9.27,33.97h3.057
		C14.715,33.97,15.395,32.84,15.395,31.792"/>
	<path clip-path="url(#SVGID_2_)" d="M135.645,35.675h0.203c0.231,0,0.43-0.085,0.43-0.302c0-0.155-0.113-0.309-0.43-0.309
		c-0.092,0-0.154,0.007-0.203,0.014V35.675z M135.645,36.652h-0.282v-1.765c0.147-0.021,0.289-0.042,0.5-0.042
		c0.267,0,0.442,0.057,0.548,0.134c0.105,0.077,0.162,0.197,0.162,0.365c0,0.232-0.156,0.373-0.344,0.429v0.013
		c0.154,0.029,0.259,0.169,0.295,0.429c0.041,0.274,0.084,0.379,0.111,0.436h-0.295c-0.043-0.057-0.084-0.218-0.119-0.45
		c-0.042-0.225-0.154-0.309-0.379-0.309h-0.197V36.652z M135.939,34.396c-0.696,0-1.266,0.598-1.266,1.335
		c0,0.752,0.569,1.342,1.271,1.342c0.704,0.007,1.267-0.59,1.267-1.335c0-0.745-0.562-1.342-1.267-1.342H135.939z M135.945,34.15
		c0.865,0,1.555,0.703,1.555,1.581c0,0.893-0.689,1.588-1.561,1.588c-0.865,0-1.568-0.696-1.568-1.588
		c0-0.878,0.703-1.581,1.568-1.581H135.945z"/>
</g>
</svg>
