<?xml version="1.0" encoding="utf-8"?>
<!-- Generator: Adobe Illustrator 16.0.0, SVG Export Plug-In . SVG Version: 6.00 Build 0)  -->
<!DOCTYPE svg PUBLIC "-//W3C//DTD SVG 1.1//EN" "http://www.w3.org/Graphics/SVG/1.1/DTD/svg11.dtd">
<svg version="1.1" id="Calque_1" xmlns="http://www.w3.org/2000/svg" xmlns:xlink="http://www.w3.org/1999/xlink" x="0px" y="0px"
	 width="140px" height="60px" viewBox="0 0 140 60" enable-background="new 0 0 140 60" xml:space="preserve">
<g>
	<defs>
		<rect id="SVGID_1_" x="19" y="22.188" width="102" height="15.624"/>
	</defs>
	<clipPath id="SVGID_2_">
		<use xlink:href="#SVGID_1_"  overflow="visible"/>
	</clipPath>
	<path clip-path="url(#SVGID_2_)" d="M22.876,26.411c-0.07-0.293-0.053-0.603-0.014-0.763c0.1-0.464,0.415-0.983,1.335-0.983
		c0.854,0,1.355,0.528,1.355,1.324v0.902h3.635v-1.026c0-3.171-2.858-3.677-4.921-3.677c-2.589,0-4.706,0.858-5.093,3.24
		c-0.107,0.655-0.125,1.229,0.027,1.966c0.634,2.982,5.815,3.845,6.568,5.73c0.143,0.352,0.1,0.803,0.027,1.076
		c-0.118,0.49-0.447,0.987-1.422,0.987c-0.912,0-1.458-0.532-1.458-1.329l-0.003-1.403H19v1.115c0,3.261,2.562,4.241,5.302,4.241
		c2.635,0,4.798-0.898,5.152-3.339c0.174-1.258,0.041-2.077-0.018-2.386C28.822,29.026,23.292,28.12,22.876,26.411 M115.842,29.049
		v2.128h1.495v2.11c0.004,0.189-0.007,0.391-0.038,0.555c-0.061,0.394-0.434,1.063-1.492,1.063c-1.057,0-1.423-0.669-1.485-1.063
		c-0.028-0.164-0.039-0.366-0.039-0.555v-6.665c0-0.236,0.015-0.494,0.065-0.689c0.07-0.354,0.386-1.056,1.451-1.056
		c1.115,0,1.391,0.739,1.454,1.056c0.046,0.209,0.046,0.562,0.046,0.562v0.81h3.672v-0.479c0,0,0.018-0.499-0.026-0.965
		c-0.276-2.734-2.53-3.601-5.114-3.601c-2.59,0-4.799,0.874-5.119,3.601c-0.029,0.251-0.074,0.698-0.074,0.965v6.131
		c0,0.265,0.011,0.472,0.061,0.962c0.237,2.66,2.543,3.602,5.123,3.602c2.594,0,4.883-0.942,5.127-3.602
		c0.041-0.49,0.045-0.697,0.053-0.962v-3.909H115.842z M90.523,22.655h-3.691v10.787c0.007,0.187,0,0.398-0.031,0.552
		c-0.078,0.364-0.385,1.061-1.401,1.061c-1.004,0-1.318-0.697-1.388-1.061c-0.039-0.153-0.043-0.365-0.039-0.552V22.655h-3.687
		v10.451c-0.004,0.272,0.017,0.822,0.03,0.966c0.256,2.722,2.4,3.608,5.083,3.608c2.687,0,4.829-0.886,5.092-3.608
		c0.017-0.144,0.046-0.694,0.032-0.966V22.655z M56.639,22.655l-1.841,11.396l-1.839-11.396h-5.95l-0.313,14.582h3.645l0.098-13.501
		l2.506,13.501h3.698l2.511-13.501l0.1,13.501h3.653l-0.326-14.582H56.639z M34.612,22.655l-2.701,14.582h3.938l2.037-13.501
		l1.985,13.501h3.912l-2.689-14.582H34.612z M103.408,34.393l-3.431-11.738h-5.411v14.428h3.576l-0.207-12.115l3.688,12.115h5.19
		V22.655h-3.604L103.408,34.393z M70.301,26.448c-0.066-0.289-0.048-0.593-0.015-0.753c0.104-0.467,0.419-0.975,1.321-0.975
		c0.843,0,1.334,0.523,1.334,1.312v0.889h3.598v-1.015c0-3.143-2.818-3.636-4.857-3.636c-2.565,0-4.664,0.849-5.047,3.211
		c-0.102,0.643-0.126,1.214,0.035,1.943c0.623,2.948,5.756,3.805,6.5,5.668c0.131,0.352,0.095,0.802,0.025,1.069
		c-0.109,0.484-0.439,0.974-1.404,0.974c-0.907,0-1.454-0.523-1.454-1.31l-0.001-1.399h-3.87v1.114c0,3.222,2.526,4.195,5.245,4.195
		c2.604,0,4.755-0.889,5.102-3.303c0.164-1.246,0.038-2.057-0.025-2.362C76.182,29.044,70.713,28.135,70.301,26.448"/>
</g>
</svg>
