<?xml version="1.0" encoding="utf-8"?>
<!-- Generator: Adobe Illustrator 16.0.0, SVG Export Plug-In . SVG Version: 6.00 Build 0)  -->
<!DOCTYPE svg PUBLIC "-//W3C//DTD SVG 1.1//EN" "http://www.w3.org/Graphics/SVG/1.1/DTD/svg11.dtd">
<svg version="1.1" id="Calque_1" xmlns="http://www.w3.org/2000/svg" xmlns:xlink="http://www.w3.org/1999/xlink" x="0px" y="0px"
	 width="140px" height="60px" viewBox="0 0 140 60" enable-background="new 0 0 140 60" xml:space="preserve">
<polygon fill-rule="evenodd" clip-rule="evenodd" points="88.43,43.29 87.047,43.29 87.047,33.467 84.415,33.467 84.415,32.203 
	91.062,32.203 91.062,33.467 88.43,33.467 "/>
<polygon fill-rule="evenodd" clip-rule="evenodd" points="102.705,32.203 108.66,32.203 108.66,33.467 104.088,33.467 
	104.088,36.57 108.528,36.57 108.528,37.835 104.088,37.835 104.088,42.026 108.66,42.026 108.66,43.29 102.705,43.29 "/>
<polygon fill-rule="evenodd" clip-rule="evenodd" points="122.826,42.025 126.193,42.025 126.193,43.29 121.444,43.29 
	121.444,32.203 122.826,32.203 "/>
<g>
	<defs>
		<rect id="SVGID_1_" x="4" y="13.165" width="132" height="33.67"/>
	</defs>
	<clipPath id="SVGID_2_">
		<use xlink:href="#SVGID_1_"  overflow="visible"/>
	</clipPath>
	<path clip-path="url(#SVGID_2_)" fill-rule="evenodd" clip-rule="evenodd" d="M56.533,34.32c-0.795-0.705-1.883-1.087-2.927-1.087
		c-2.485,0-4.382,2.073-4.382,4.529c0,2.426,1.882,4.5,4.353,4.5c1.089,0,2.132-0.411,2.956-1.147v1.634
		c-0.854,0.499-1.941,0.778-2.912,0.778c-3.162,0-5.779-2.515-5.779-5.72c0-3.279,2.633-5.838,5.896-5.838
		c0.971,0,1.956,0.235,2.795,0.75V34.32z"/>
	<polygon clip-path="url(#SVGID_2_)" fill-rule="evenodd" clip-rule="evenodd" points="34.133,42.025 37.5,42.025 37.5,43.29 
		32.75,43.29 32.75,32.203 34.133,32.203 	"/>
	<path clip-path="url(#SVGID_2_)" fill-rule="evenodd" clip-rule="evenodd" d="M18.762,39.246h-3.942l1.972-4.485L18.762,39.246z
		 M19.334,40.512l1.266,2.779h1.484l-5.293-11.559l-5.295,11.559h1.486l1.264-2.779H19.334z"/>
	<polygon clip-path="url(#SVGID_2_)" fill-rule="evenodd" clip-rule="evenodd" points="70,31.853 75.82,43.393 64.179,43.393 	"/>
	<polygon clip-path="url(#SVGID_2_)" fill-rule="evenodd" clip-rule="evenodd" points="70,24.705 75.82,13.165 64.179,13.165 	"/>
</g>
</svg>
