<?xml version="1.0" encoding="utf-8"?>
<!-- Generator: Adobe Illustrator 16.0.0, SVG Export Plug-In . SVG Version: 6.00 Build 0)  -->
<!DOCTYPE svg PUBLIC "-//W3C//DTD SVG 1.1//EN" "http://www.w3.org/Graphics/SVG/1.1/DTD/svg11.dtd">
<svg version="1.1" id="Calque_1" xmlns="http://www.w3.org/2000/svg" xmlns:xlink="http://www.w3.org/1999/xlink" x="0px" y="0px"
	 width="140px" height="60px" viewBox="0 0 140 60" enable-background="new 0 0 140 60" xml:space="preserve">
<g>
	<defs>
		<rect id="SVGID_1_" x="29.5" y="22.886" width="81" height="14.228"/>
	</defs>
	<clipPath id="SVGID_2_">
		<use xlink:href="#SVGID_1_"  overflow="visible"/>
	</clipPath>
	<path clip-path="url(#SVGID_2_)" d="M58.297,22.886c-2.801,0-5.773,0.959-7.459,2.495c-1.343,1.224-2.029,2.908-2.029,4.609
		c0,1.714,0.655,3.388,2.029,4.616c1.812,1.631,4.529,2.507,7.459,2.507c2.936,0,5.711-0.866,7.477-2.507
		c1.307-1.212,2-2.969,2-4.616c0-1.703-0.65-3.379-2-4.605C63.878,23.664,61.397,22.886,58.297,22.886 M62.301,33.701
		c-1.009,1-2.447,1.538-4.004,1.538c-1.545,0-3.016-0.55-4.008-1.538c-0.955-0.949-1.465-2.291-1.465-3.71
		c0-1.432,0.506-2.774,1.465-3.723c0.992-0.982,2.467-1.53,4.008-1.53c1.531,0,3.006,0.55,4.004,1.53
		c0.961,0.949,1.463,2.286,1.463,3.723C63.764,31.481,63.301,32.705,62.301,33.701"/>
	<path clip-path="url(#SVGID_2_)" d="M43.559,29.17c-0.408-0.19-1.049-0.419-1.569-0.552c-1.021-0.246-3.319-0.556-4.426-0.669
		c-1.153-0.123-3.156-0.286-3.954-0.536c-0.244-0.074-0.736-0.31-0.736-0.885c0-0.407,0.224-0.754,0.67-1.036
		c0.711-0.44,2.145-0.717,3.639-0.717c1.765-0.004,3.258,0.395,4.213,0.823c0.322,0.145,0.698,0.352,1.002,0.598
		c0.337,0.279,0.816,0.85,0.988,1.651h1.592v-4.334h-1.779v0.506c0,0.161-0.168,0.37-0.488,0.196
		c-0.794-0.417-3.049-1.319-5.812-1.323c-1.567,0-3.346,0.292-4.858,0.97c-1.394,0.623-2.538,1.627-2.538,3.299
		c0,1.499,0.955,2.382,0.93,2.359c0.41,0.372,1.062,1.013,2.771,1.385c0.765,0.167,2.401,0.424,4.026,0.594
		c1.617,0.175,3.208,0.331,3.855,0.498c0.515,0.132,1.379,0.31,1.379,1.277c0,0.965-0.91,1.259-1.07,1.323
		c-0.158,0.064-1.249,0.562-3.215,0.562c-1.449,0-3.191-0.434-3.826-0.659c-0.732-0.261-1.501-0.606-2.217-1.482
		c-0.178-0.219-0.458-0.812-0.458-1.406h-1.778v4.982h1.977v-0.674c0-0.076,0.096-0.393,0.426-0.242
		c0.414,0.188,1.627,0.67,2.89,0.937c1.038,0.217,1.708,0.37,2.999,0.37c2.105,0,3.24-0.343,4.021-0.566
		c0.735-0.211,1.645-0.589,2.387-1.18c0.399-0.319,1.275-1.135,1.275-2.623c0-1.418-0.765-2.303-1.033-2.576
		C44.474,29.674,44.027,29.389,43.559,29.17"/>
	<path clip-path="url(#SVGID_2_)" d="M82.016,25.259h1.633c0.752,0,0.881,0.292,0.889,0.984l0.087,5.279l-8.69-7.843h-6.213v1.582
		h1.384c1.001,0,1.067,0.564,1.067,1.042v7.4c0,0.44,0.025,1.048-0.611,1.048h-1.709v1.581h7.298v-1.581h-1.786
		c-0.707,0-0.74-0.325-0.752-1.015V27.4l10.009,8.932h2.546l-0.132-10.089c0.005-0.738,0.054-0.984,0.819-0.984h1.596v-1.577h-7.434
		V25.259z"/>
	<path clip-path="url(#SVGID_2_)" d="M102.992,34.722l-0.344-0.308l-0.032-0.339V31.58l0.058-0.231
		c0.119-0.143,4.609-5.263,4.809-5.49c0.434-0.492,0.669-0.598,1.248-0.598h1.596V23.68h-7.14v1.581h1.075
		c0.306,0,0.4,0.318,0.26,0.488l-3.025,3.549l-0.088-0.01l-2.964-3.545c-0.206-0.255-0.045-0.484,0.198-0.484h1.051V23.68h-8.715
		v1.581h1.546c0.679,0,1.12,0.422,1.368,0.701c0.203,0.224,4.639,5.252,4.754,5.399l0.107,0.219v2.495l-0.036,0.339l-0.339,0.308
		l-0.438,0.027h-1.55v1.582h8.668v-1.582h-1.629L102.992,34.722z"/>
	<path clip-path="url(#SVGID_2_)" d="M109.619,35.613l-0.012-0.38c-0.018-0.293-0.137-0.345-0.252-0.395
		c0.131-0.081,0.289-0.192,0.289-0.504c0-0.447-0.348-0.566-0.691-0.566h-0.971v2.102h0.285v-0.899h0.686
		c0.344,0,0.377,0.2,0.377,0.372l0.049,0.527h0.348v-0.043L109.619,35.613z M108.925,34.725h-0.657v-0.715h0.707
		c0.141,0,0.381,0.027,0.381,0.354C109.355,34.672,109.136,34.725,108.925,34.725"/>
	<path clip-path="url(#SVGID_2_)" d="M108.788,33.129c-0.942,0-1.712,0.769-1.712,1.709c0,0.942,0.77,1.712,1.712,1.712
		s1.712-0.77,1.712-1.712C110.5,33.897,109.73,33.129,108.788,33.129 M108.788,36.351c-0.835,0-1.517-0.678-1.517-1.513
		c0-0.835,0.682-1.517,1.517-1.517s1.513,0.682,1.513,1.517C110.301,35.673,109.623,36.351,108.788,36.351"/>
</g>
</svg>
