<svg xmlns="http://www.w3.org/2000/svg" width="42.8" height="44" viewBox="0 0 42.8 44">
  <g id="mp4" transform="translate(-3.08 -2)">
    <g id="layer1" transform="translate(0 -1004.36)">
      <g id="path7602" transform="translate(0 1004.36)">
        <path id="Path_3" data-name="Path 3" d="M30.58,46h-23a4.524,4.524,0,0,1-4.5-4.5s.014-22.309.017-27.362a1.01,1.01,0,0,1,1.01-1.009H5.129a1.011,1.011,0,0,1,1.009,1.012C6.128,19.2,6.08,41.5,6.08,41.5a1.608,1.608,0,0,0,.1.562A1.437,1.437,0,0,0,7,42.893,1.615,1.615,0,0,0,7.58,43H30.6a1.622,1.622,0,0,0,.525-.094,1.454,1.454,0,0,0,.861-.861,1.606,1.606,0,0,0,.094-.545V39.1a.988.988,0,0,1,.987-.988h1.026a.988.988,0,0,1,.987.988v2.4A4.524,4.524,0,0,1,30.58,46Zm3.448-21.168h-.9a1.051,1.051,0,0,1-1.052-1.051V13.008a.011.011,0,0,1-.01-.01L25.6,12.981a1.478,1.478,0,0,1-.48-.08A1.492,1.492,0,0,1,24.1,11.485L24.084,5h-10a1,1,0,0,1-1-1V3a1,1,0,0,1,1-1H26.066a1.5,1.5,0,0,1,1.061.44l7.514,7.513a1.5,1.5,0,0,1,.439,1.061V23.781A1.051,1.051,0,0,1,34.028,24.832ZM3.1,13.129Z" fill="#242730"/>
      </g>
      <g id="path7604" transform="translate(-1108.92 598.363)">
        <path id="Path_4" data-name="Path 4" d="M1116.5,408a4.522,4.522,0,0,0-4.5,4.5V415a1,1,0,0,0,1,1h1a1,1,0,0,0,1-1v-2.5a1.463,1.463,0,0,1,1.5-1.5h2.5a1,1,0,0,0,1-1v-1a1,1,0,0,0-1-1Z" fill="#11c111"/>
      </g>
    </g>
    <g id="Layer1-2" data-name="Layer1">
      <g id="path76041" transform="translate(-1082.12 -406)">
        <path id="Path_5" data-name="Path 5" d="M1101,432a1.994,1.994,0,0,0-2,2v7a1.994,1.994,0,0,0,2,2h25a1.994,1.994,0,0,0,2-2v-7a1.994,1.994,0,0,0-2-2Z" fill="#11c111"/>
      </g>
      <g id="Group_1" data-name="Group 1" transform="translate(6.147 11.494)">
        <text id="MP4-2" data-name="MP4" transform="translate(16.201 23.297)" fill="#fff" font-size="9" font-family="ArialRoundedMTBold, Arial Rounded MT"><tspan x="0" y="0">MP4</tspan></text>
      </g>
    </g>
  </g>
</svg>
